<?xml version="1.0" standalone="no"?>
<!DOCTYPE svg PUBLIC "-//W3C//DTD SVG 20010904//EN"
 "http://www.w3.org/TR/2001/REC-SVG-20010904/DTD/svg10.dtd">
<svg version="1.0" xmlns="http://www.w3.org/2000/svg"
 width="869.000000pt" height="1280.000000pt" viewBox="0 0 869.000000 1280.000000"
 preserveAspectRatio="xMidYMid meet">
<metadata>
Created by potrace 1.15, written by Peter Selinger 2001-2017
</metadata>
<g transform="translate(0.000000,1280.000000) scale(0.100000,-0.100000)"
fill="#4caf50" stroke="none">
<path d="M7680 12789 c-41 -4 -219 -12 -395 -17 -351 -11 -375 -14 -715 -101
-356 -90 -512 -142 -678 -224 -37 -19 -101 -47 -142 -62 -54 -20 -87 -40 -117
-71 -23 -24 -45 -39 -48 -34 -10 16 -50 11 -68 -7 -32 -35 -52 -54 -75 -71
-13 -10 -33 -47 -47 -86 l-24 -70 29 -85 c15 -48 45 -133 66 -191 37 -101 38
-110 39 -245 1 -122 5 -151 29 -230 51 -167 76 -203 133 -192 20 4 38 -5 82
-41 85 -69 152 -97 237 -97 l70 0 -17 -30 c-9 -16 -23 -57 -30 -90 -14 -69
-24 -90 -72 -162 -46 -69 -73 -142 -103 -282 -37 -173 -70 -263 -121 -322 -28
-33 -43 -60 -43 -77 1 -44 34 -104 93 -168 31 -34 61 -73 66 -87 15 -39 -4
-91 -70 -191 -32 -49 -59 -94 -59 -101 0 -12 -161 -256 -255 -389 -41 -57 -47
-112 -15 -141 11 -10 20 -26 20 -36 0 -25 43 -72 98 -108 48 -31 50 -31 181
-31 127 0 133 -1 156 -25 14 -13 25 -28 25 -33 0 -4 -18 -39 -41 -76 -55 -92
-60 -84 111 -218 30 -24 63 -58 73 -76 l20 -33 -28 -51 c-45 -83 -38 -143 30
-237 39 -53 33 -95 -25 -206 -29 -55 -50 -108 -50 -126 0 -48 56 -141 125
-210 88 -86 123 -105 219 -118 340 -46 329 -46 501 -11 242 49 264 38 284
-144 6 -47 13 -91 16 -97 4 -5 2 -32 -5 -59 -14 -58 -63 -119 -134 -166 -28
-19 -82 -59 -121 -90 -107 -84 -237 -152 -493 -255 -140 -56 -207 -96 -258
-152 -95 -103 -144 -245 -164 -474 -10 -123 -22 -173 -39 -173 -5 0 -26 -26
-45 -59 -44 -72 -59 -85 -89 -77 -13 3 -88 69 -166 146 -78 77 -149 140 -157
140 -9 0 -14 -10 -14 -27 0 -21 28 -54 133 -157 73 -72 154 -162 180 -201 26
-38 69 -98 95 -131 26 -34 64 -89 84 -122 24 -38 64 -81 110 -118 68 -54 167
-156 175 -181 2 -6 -4 -14 -15 -17 -10 -4 -32 -24 -48 -46 -16 -22 -36 -42
-44 -45 -8 -3 -23 -18 -32 -34 -9 -17 -39 -41 -68 -56 -30 -15 -84 -59 -127
-103 -44 -46 -73 -69 -70 -57 2 11 6 26 8 34 7 25 -26 23 -53 -4 -34 -34 -88
-137 -88 -169 0 -32 7 -32 37 -4 l24 22 -26 -69 c-59 -157 -65 -163 -134 -140
-74 24 -94 44 -100 101 -5 41 -11 52 -39 71 -19 12 -55 25 -80 28 -26 4 -81
14 -122 22 -45 10 -107 15 -155 12 -44 -2 -159 -4 -256 -4 l-176 0 -72 38
c-40 20 -77 37 -82 37 -16 0 1 -42 30 -73 52 -57 93 -70 246 -78 77 -4 165
-14 195 -23 30 -9 113 -27 184 -40 71 -13 132 -29 136 -36 11 -18 -14 -135
-46 -215 -15 -38 -66 -135 -114 -215 -47 -80 -96 -170 -109 -200 -13 -30 -41
-86 -62 -125 -43 -79 -56 -137 -40 -178 9 -23 8 -31 -9 -49 -11 -12 -20 -27
-20 -34 0 -6 -8 -22 -18 -34 l-19 -23 -44 30 c-24 17 -76 47 -116 66 -42 22
-107 68 -156 112 -72 64 -89 87 -122 157 -46 95 -90 144 -140 154 -20 3 -39 4
-42 0 -4 -4 14 -28 39 -54 60 -62 65 -73 83 -189 27 -169 53 -222 118 -238 31
-8 34 4 16 68 -6 22 -8 41 -5 44 2 3 19 -11 37 -32 44 -49 131 -115 207 -155
97 -51 176 -144 252 -292 62 -124 103 -178 152 -204 37 -19 64 -18 88 6 42 42
15 137 -75 267 -42 60 -85 135 -85 148 0 9 129 -60 213 -113 92 -59 183 -87
257 -80 55 6 92 30 83 56 -23 66 -101 125 -221 168 -91 32 -109 43 -90 55 18
12 136 11 176 0 59 -17 76 28 26 70 -9 7 -71 28 -138 47 -66 18 -159 52 -206
75 -77 38 -85 45 -88 73 -2 25 3 37 24 53 44 34 93 26 194 -34 67 -40 85 7 50
127 -27 90 -24 137 18 241 18 43 35 97 38 120 l6 42 -55 -54 c-30 -29 -60 -50
-66 -47 -18 11 -13 45 12 79 13 18 34 58 47 90 25 65 55 107 75 107 16 0 108
-45 158 -78 46 -31 77 -79 77 -122 0 -18 -11 -69 -25 -114 -33 -108 -55 -242
-55 -330 0 -66 3 -74 36 -116 20 -25 59 -65 87 -91 l51 -45 0 -185 c1 -160 -2
-189 -18 -222 -31 -63 -41 -42 -38 79 2 60 1 106 -2 103 -4 -3 -13 -46 -21
-94 -17 -104 -33 -128 -82 -119 -25 5 -39 2 -53 -11 -39 -35 -17 -109 50 -171
58 -54 134 -159 197 -272 l53 -97 0 -116 c0 -64 4 -140 10 -169 13 -71 -1
-155 -51 -299 -23 -64 -47 -138 -55 -165 -23 -83 -53 -133 -125 -209 -61 -66
-75 -76 -131 -92 -90 -26 -204 -23 -298 8 -114 38 -104 49 54 67 98 12 206 60
265 119 75 75 37 87 -49 15 -75 -61 -93 -70 -223 -104 -134 -36 -221 -38 -329
-11 -86 22 -398 153 -443 186 -16 12 -89 57 -160 99 -122 72 -255 175 -367
284 -59 57 -61 47 -6 -26 122 -162 257 -285 404 -369 182 -103 207 -155 34
-68 -170 85 -299 173 -450 306 -124 109 -491 478 -538 540 -22 30 -51 65 -65
78 l-26 24 -11 -28 c-15 -39 2 -87 58 -160 25 -33 80 -105 121 -160 98 -130
353 -385 509 -510 104 -82 145 -107 255 -157 421 -190 676 -275 981 -324 276
-45 379 -56 491 -52 l110 3 60 41 c84 58 125 78 137 66 9 -9 16 -71 43 -390
15 -181 40 -295 83 -377 8 -16 23 -80 32 -141 25 -162 62 -228 118 -208 39 13
39 52 2 168 -24 75 -31 112 -29 164 1 37 -5 94 -14 127 -40 150 -51 260 -67
715 -6 170 -14 273 -25 310 -16 60 -31 142 -71 385 -47 293 -43 513 17 865 31
184 43 214 73 184 20 -19 19 -33 -9 -169 -44 -220 -87 -703 -67 -755 l10 -25
6 25 c5 24 14 95 66 535 12 99 28 206 37 237 15 54 46 99 60 85 12 -13 15
-106 4 -138 -14 -41 -57 -311 -71 -448 -15 -152 -13 -313 4 -336 14 -19 15
-19 24 5 6 14 16 102 22 195 20 302 63 604 87 612 7 3 16 -4 22 -15 10 -19 2
-108 -33 -377 -8 -60 -17 -139 -21 -175 -3 -36 -10 -108 -16 -160 -8 -68 -8
-103 0 -122 15 -39 39 -36 45 5 15 104 48 420 55 525 9 133 19 159 45 120 14
-22 14 -38 1 -164 -7 -76 -17 -177 -20 -224 -3 -47 -13 -141 -22 -210 -17
-143 -10 -260 17 -260 12 0 20 28 31 109 10 86 23 106 46 76 12 -16 14 -40 9
-128 -7 -119 1 -154 33 -138 16 9 20 35 30 198 18 268 37 443 50 456 8 8 14 8
23 -1 18 -18 13 -149 -17 -389 -27 -215 -33 -322 -21 -341 10 -16 36 -15 40 1
15 49 17 52 26 37 6 -8 10 -38 10 -66 0 -56 21 -97 40 -78 13 13 20 58 51 322
12 101 19 204 17 230 -7 59 -2 72 27 72 49 0 51 -18 20 -198 -33 -194 -45
-460 -25 -555 12 -58 26 -79 40 -57 18 30 47 -134 75 -431 16 -165 40 -312 68
-419 8 -30 22 -94 31 -142 19 -100 50 -182 69 -176 6 3 19 16 27 31 13 23 12
30 -8 70 -23 46 -25 61 -52 402 -5 72 -17 155 -25 185 -24 86 -45 237 -45 325
0 45 -9 115 -20 160 -25 101 -25 120 1 146 30 30 38 65 54 241 9 86 19 166 23
178 8 21 9 21 25 5 20 -19 22 -75 7 -177 -5 -37 -11 -136 -12 -220 -2 -168 10
-220 52 -233 33 -11 39 10 23 78 -15 67 -20 124 -10 133 10 10 34 -10 78 -66
l43 -54 9 27 c6 19 4 33 -7 49 -21 29 -20 57 2 81 9 10 22 35 27 54 6 20 18
41 28 47 21 14 34 6 148 -87 64 -52 128 -90 267 -158 101 -50 216 -99 255
-109 40 -10 133 -45 207 -78 74 -33 155 -66 180 -72 25 -7 65 -23 90 -36 51
-28 88 -31 96 -9 10 25 -40 89 -98 127 -109 72 -369 196 -573 272 -250 94
-361 144 -418 188 -96 74 -224 207 -416 433 -307 361 -319 374 -356 406 -50
44 -77 93 -73 131 2 27 10 36 40 50 50 24 68 62 68 143 0 57 7 85 50 190 27
68 67 195 89 282 58 228 97 351 131 403 16 25 78 92 137 150 116 112 256 301
237 320 -43 43 -343 -249 -424 -413 -68 -139 -231 -595 -251 -701 -6 -33 -17
-74 -24 -91 -7 -16 -23 -64 -35 -105 -12 -41 -26 -79 -31 -84 -11 -13 -38 13
-213 203 -152 167 -255 254 -469 400 -238 162 -253 206 -193 551 30 170 36
195 95 352 103 279 228 455 406 573 94 62 149 90 225 117 55 19 55 19 69 -2 8
-11 67 -64 133 -117 79 -64 140 -124 183 -178 35 -45 106 -121 157 -170 86
-81 155 -130 413 -296 102 -66 284 -152 397 -188 79 -26 190 -42 203 -30 22
21 -46 61 -224 129 -100 39 -201 80 -223 91 -67 34 -280 169 -324 205 -51 41
-60 78 -74 319 -13 214 -10 235 70 456 81 222 104 346 120 636 11 220 16 269
36 383 38 215 51 230 190 230 70 0 107 5 150 21 108 41 329 206 537 400 126
119 131 129 100 193 -16 35 -16 35 15 70 31 36 49 93 38 121 -3 9 -18 15 -35
15 -41 0 -106 -56 -399 -342 -133 -131 -247 -238 -252 -238 -18 0 -11 14 29
55 47 48 271 380 271 401 0 27 -36 -3 -70 -58 -50 -82 -228 -315 -294 -386
-59 -63 -94 -87 -148 -103 -44 -12 -35 12 25 67 28 27 73 74 98 104 61 73 249
352 249 369 0 24 -27 -7 -98 -108 -136 -197 -255 -337 -314 -367 -26 -13 -28
-13 -28 4 0 26 214 317 314 427 96 106 253 287 316 365 25 30 77 93 117 139
40 46 70 88 67 93 -12 19 -35 5 -80 -50 -27 -31 -78 -89 -114 -127 -36 -39
-123 -140 -195 -225 -145 -174 -250 -287 -280 -302 -19 -10 -19 -10 -4 8 43
51 217 275 314 404 60 80 143 188 185 240 42 52 112 140 155 195 44 55 99 122
123 148 58 64 86 126 72 163 -6 15 -14 23 -18 18 -5 -5 -42 -47 -84 -94 -75
-84 -136 -163 -389 -498 -117 -155 -179 -228 -414 -482 -38 -42 -89 -97 -111
-123 -47 -54 -83 -61 -128 -26 -54 42 -87 154 -46 154 8 0 37 -30 65 -67 32
-43 52 -63 57 -55 15 24 7 64 -22 110 -59 93 -70 123 -70 190 0 123 47 200
204 334 115 98 178 143 283 203 150 85 461 313 561 412 105 104 128 158 66
158 -19 0 -38 -13 -67 -45 -22 -25 -44 -45 -49 -45 -16 0 -8 48 12 73 23 29
26 57 7 57 -7 0 -37 -25 -67 -55 -53 -54 -80 -68 -80 -42 0 6 14 53 31 102 40
119 82 175 152 209 92 43 137 119 103 171 -9 14 -25 25 -34 25 -22 0 -62 40
-62 62 0 9 20 45 45 81 49 72 53 88 29 108 -23 19 -97 -22 -215 -120 -52 -43
-104 -81 -116 -85 -26 -8 -78 15 -87 39 -12 32 -6 83 14 108 20 26 26 62 12
71 -14 8 -72 -32 -81 -56 -43 -115 -41 -134 19 -204 48 -57 49 -59 31 -79 -24
-26 -41 -60 -41 -80 0 -14 7 -16 48 -11 99 13 95 -33 -13 -143 -79 -81 -95
-110 -95 -170 0 -61 -11 -99 -35 -124 -49 -48 -254 -179 -333 -211 -79 -33
-163 -78 -425 -227 -65 -37 -155 -81 -200 -97 -45 -17 -118 -48 -162 -70 -115
-57 -150 -66 -245 -67 -74 0 -93 4 -143 28 -34 17 -72 47 -94 73 -21 24 -45
44 -54 44 -33 0 -50 13 -69 49 -10 21 -26 43 -34 50 -9 8 -16 21 -16 30 0 28
252 261 283 261 2 0 7 -9 10 -21 3 -12 12 -19 19 -17 23 7 58 90 58 138 l-1
45 -27 -33 -28 -34 -69 10 c-39 5 -106 7 -150 5 -100 -6 -111 2 -95 73 19 89
50 125 50 59 0 -45 19 -53 62 -27 18 11 71 30 118 42 117 29 137 38 193 88 68
60 83 56 129 -41 21 -42 44 -77 52 -77 29 0 39 -27 27 -76 -13 -50 -5 -69 21
-59 27 10 41 60 33 113 -4 26 -8 70 -9 97 -2 28 -12 69 -24 92 -29 56 -30 103
-2 103 25 0 35 -24 45 -104 5 -43 13 -65 30 -80 l23 -20 -19 -68 c-11 -37 -19
-81 -19 -98 0 -26 4 -30 26 -30 35 0 79 48 98 108 8 26 22 100 30 164 14 111
17 120 55 171 49 65 84 141 76 166 -3 11 -17 27 -31 36 -14 9 -34 36 -45 59
-10 23 -27 50 -38 60 -23 21 -51 15 -51 -10 0 -42 -41 -83 -131 -129 -121 -62
-127 -61 -168 37 -15 37 -28 51 -63 68 -28 13 -52 18 -70 14 -27 -5 -28 -4
-22 25 8 38 -9 41 -43 10 l-22 -22 9 32 c10 35 5 56 -18 84 -20 23 -41 22 -70
-5 l-23 -23 7 55 7 54 -26 -17 -27 -17 0 34 c0 36 -35 142 -50 151 -9 6 -181
-28 -225 -45 -37 -14 -66 -40 -59 -51 3 -5 41 -9 84 -9 72 0 82 -3 112 -28 18
-15 52 -40 76 -55 27 -17 42 -35 42 -48 0 -19 -4 -20 -97 -13 -54 3 -123 13
-153 21 -103 27 -188 28 -255 3 -92 -34 -127 -36 -180 -9 -26 13 -49 27 -52
31 -10 18 35 78 105 137 40 34 80 74 89 88 16 24 16 26 0 38 -23 16 -21 28 6
62 40 48 97 150 138 246 22 50 51 115 64 142 13 28 31 67 39 88 15 38 22 42
44 29 9 -6 10 -16 4 -33 -5 -13 -5 -38 0 -55 9 -37 70 -94 99 -94 40 0 67 -42
74 -116 9 -79 17 -104 40 -127 22 -22 32 -21 38 3 8 31 23 24 57 -25 46 -67
79 -80 121 -47 l22 19 -41 23 c-44 25 -52 45 -27 64 14 10 13 15 -10 46 -34
46 -32 56 13 71 20 7 47 18 59 26 29 19 74 9 113 -24 43 -36 42 -84 -3 -127
-42 -39 -51 -61 -31 -81 34 -33 94 -5 94 44 0 12 11 33 25 46 21 22 33 25 97
25 79 1 105 10 138 53 32 40 20 57 -39 57 -59 0 -101 14 -101 34 0 21 23 26
110 26 87 0 97 6 107 63 4 29 1 40 -19 60 -23 23 -53 33 -181 57 -38 8 -60 17
-64 28 -3 10 -17 27 -32 40 -15 13 -22 25 -16 30 6 4 15 16 22 27 6 11 15 19
20 18 89 -17 86 -17 74 6 -18 33 -81 68 -172 94 -46 14 -104 34 -129 46 -70
32 -135 27 -273 -19 -66 -22 -125 -40 -132 -40 -22 0 -55 50 -55 83 0 29 1 29
18 14 10 -10 22 -17 27 -17 8 0 2 65 -11 117 -7 25 -6 27 9 14 43 -35 62 26
30 93 l-16 35 -29 -44 c-49 -75 -71 -81 -83 -26 -9 44 12 108 51 150 18 21 34
49 34 62 0 13 11 42 25 64 17 27 24 55 25 88 0 26 2 47 4 47 3 0 16 -4 30 -10
25 -9 26 -9 26 34 0 63 13 70 123 63 86 -5 98 -9 192 -57 75 -39 120 -55 184
-67 46 -8 98 -22 114 -31 105 -61 106 -61 246 -32 107 23 171 25 257 9 65 -12
234 -78 234 -91 0 -15 -29 -8 -114 27 -82 34 -133 45 -122 26 4 -5 50 -33 104
-62 77 -42 114 -55 180 -66 46 -7 93 -18 105 -25 l21 -11 -21 -8 c-34 -13 -38
-30 -12 -52 20 -16 34 -18 79 -14 57 6 88 -3 76 -22 -4 -7 -36 -11 -79 -10
-51 1 -87 -5 -125 -20 -70 -28 -109 -28 -123 2 -5 12 -31 34 -57 48 -152 83
-200 107 -227 114 l-30 7 25 -27 c13 -14 73 -54 132 -88 59 -34 108 -66 108
-71 0 -17 -65 5 -130 43 -61 36 -120 61 -143 61 -6 0 2 -13 17 -29 l28 -29
-36 1 c-49 1 -65 -16 -41 -43 10 -11 23 -20 30 -20 20 0 63 -53 81 -100 24
-64 38 -76 132 -120 97 -46 193 -135 230 -212 11 -25 35 -56 51 -68 29 -20
124 -45 200 -52 32 -3 34 -1 46 39 21 69 61 129 99 147 36 17 151 22 160 7 3
-5 -8 -28 -24 -52 -16 -24 -30 -47 -30 -51 0 -17 78 -6 135 18 33 14 93 36
134 50 71 24 76 24 114 9 68 -27 70 -20 64 195 -6 233 -25 467 -40 500 -9 18
-53 46 -162 100 -151 75 -192 90 -595 215 -118 37 -262 82 -320 101 -104 33
-309 76 -425 89 -33 3 -130 15 -215 25 -85 11 -222 24 -304 30 l-149 11 -54
-36 c-29 -20 -58 -33 -63 -30 -5 3 14 56 42 118 122 272 140 316 164 396 38
122 67 142 229 156 39 4 129 16 200 27 187 30 436 29 665 0 96 -13 195 -29
220 -37 25 -7 92 -25 150 -40 58 -15 141 -42 185 -60 90 -36 176 -58 200 -49
9 4 20 15 26 26 24 44 -70 101 -263 162 -94 29 -118 40 -118 55 0 29 28 47
145 95 145 60 163 85 87 122 -49 24 -169 21 -303 -6 -113 -22 -139 -24 -139
-11 0 16 108 51 209 67 108 17 151 31 151 48 0 6 -16 31 -35 55 -19 24 -35 53
-35 65 0 17 -16 27 -90 55 -59 22 -105 47 -135 73 -45 40 -45 40 -108 33 -125
-14 -214 -51 -278 -117 -49 -51 -62 -75 -94 -177 -24 -75 -69 -141 -96 -141
-5 0 -9 -13 -9 -28 0 -16 -8 -36 -18 -45 -22 -20 -65 -22 -80 -4 -22 26 -25
120 -7 201 23 105 17 135 -46 207 -62 71 -96 91 -160 92 -56 1 -178 -45 -209
-78 -47 -50 -44 -145 6 -234 13 -24 24 -45 24 -47 0 -11 -101 -2 -173 15 -156
37 -246 45 -434 37 -212 -8 -248 -14 -248 -41 0 -19 8 -20 175 -20 115 0 182
-4 195 -12 11 -6 49 -43 84 -83 77 -86 117 -108 226 -122 59 -7 85 -15 85 -24
0 -8 -12 -16 -27 -20 -104 -22 -206 -77 -335 -181 -38 -31 -71 -53 -74 -50 -3
2 23 29 57 58 35 30 76 67 93 82 l29 29 -29 23 c-16 14 -36 24 -45 25 -9 0
-44 -18 -78 -40 -34 -22 -66 -40 -71 -40 -21 0 -8 20 36 57 25 21 62 53 82 70
l37 32 -30 1 c-20 0 -54 -16 -97 -45 -64 -43 -68 -44 -78 -25 -13 24 -47 26
-95 6 -19 -8 -35 -11 -35 -7 0 14 40 44 107 81 73 39 90 60 48 60 -25 0 -106
-42 -225 -116 -30 -19 -61 -34 -69 -34 -26 0 51 70 110 100 66 34 87 56 71 72
-18 18 -84 -17 -195 -104 -101 -80 -117 -88 -117 -64 0 25 38 62 124 122 47
32 86 62 86 67 0 14 -54 7 -96 -13 -23 -11 -67 -43 -98 -70 -34 -29 -62 -47
-71 -44 -23 9 -33 64 -23 125 6 30 12 63 14 75 7 41 45 72 176 147 208 119
419 209 614 262 93 26 216 66 273 91 179 76 349 100 796 110 l270 6 30 -48
c63 -103 156 -180 208 -172 34 5 32 39 -7 104 -53 87 -50 94 32 94 87 0 122
-18 237 -122 48 -43 95 -78 106 -78 45 0 98 47 99 86 0 25 -29 54 -56 54 -14
0 -11 5 13 20 43 26 52 63 27 109 -32 58 -68 72 -232 88 -190 18 -397 23 -492
12z m-815 -450 c9 -14 -14 -69 -30 -69 -6 0 -20 9 -30 20 -20 22 -46 25 -74
11 -10 -6 -23 -6 -31 -1 -11 7 -3 14 30 29 48 22 125 28 135 10z m640 -29 c-3
-5 -11 -10 -16 -10 -6 0 -7 5 -4 10 3 6 11 10 16 10 6 0 7 -4 4 -10z m-85 -49
c0 -12 -20 -25 -27 -18 -7 7 6 27 18 27 5 0 9 -4 9 -9z m-1813 -135 c-6 -17
-27 -18 -33 -2 -3 9 -3 24 1 34 6 16 7 16 21 -3 8 -10 13 -24 11 -29z m1825
-24 c20 -19 29 -35 25 -45 -6 -17 -106 -43 -131 -34 -18 7 -22 58 -6 88 17 30
73 25 112 -9z m263 -2 c-3 -5 -11 -10 -16 -10 -6 0 -7 5 -4 10 3 6 11 10 16
10 6 0 7 -4 4 -10z m-1259 -108 c66 -23 165 -83 157 -95 -11 -18 -165 -2 -210
21 -39 20 -83 64 -83 83 0 15 82 9 136 -9z m1608 12 c61 -24 -73 -61 -289 -81
-45 -4 -115 11 -103 22 4 4 238 51 293 58 52 7 83 7 99 1z m-1267 -79 c29 -39
53 -73 53 -77 0 -5 -9 -8 -20 -8 -14 0 -30 16 -49 48 -16 26 -39 62 -50 80
-19 30 -19 33 -4 30 10 -2 42 -35 70 -73z m683 10 c44 -40 114 -59 230 -64
l115 -4 -95 -23 c-76 -18 -104 -21 -139 -13 -24 5 -100 14 -170 19 -166 13
-185 19 -189 55 -6 46 16 54 131 49 69 -3 105 -8 117 -19z m-510 -48 c0 -20
-22 -37 -47 -37 -27 0 -31 24 -5 39 24 15 52 13 52 -2z m-1220 -166 c0 -6 -4
-13 -10 -16 -5 -3 -10 1 -10 9 0 9 5 16 10 16 6 0 10 -4 10 -9z m248 -23 c-6
-18 -28 -21 -28 -4 0 9 7 16 16 16 9 0 14 -5 12 -12z m220 -33 c-21 -19 -43
-35 -50 -35 -7 1 5 16 26 35 51 46 72 45 24 0z m-292 -21 c-11 -7 -22 -12 -25
-9 -2 3 4 12 15 19 10 8 21 12 24 9 3 -2 -4 -11 -14 -19z m144 7 c0 -12 -20
-25 -27 -18 -7 7 6 27 18 27 5 0 9 -4 9 -9z m-230 -70 c-13 -26 -81 -81 -98
-81 -22 0 8 40 54 72 46 32 58 35 44 9z m490 9 c0 -5 -5 -10 -11 -10 -5 0 -7
5 -4 10 3 6 8 10 11 10 2 0 4 -4 4 -10z m-360 -10 c0 -5 -5 -10 -11 -10 -5 0
-7 5 -4 10 3 6 8 10 11 10 2 0 4 -4 4 -10z m130 0 c0 -5 -4 -10 -10 -10 -5 0
-10 5 -10 10 0 6 5 10 10 10 6 0 10 -4 10 -10z m180 -44 c0 -3 -15 -15 -32
-27 l-33 -23 24 27 c22 24 41 35 41 23z m-408 -54 c-32 -44 -125 -127 -129
-115 -6 16 21 64 49 89 64 56 112 72 80 26z m-12 -127 c-7 -8 -20 -15 -29 -15
-12 1 -11 5 8 21 26 22 41 18 21 -6z m902 -381 c18 -17 69 -50 113 -73 110
-59 195 -114 195 -128 0 -8 -21 -10 -72 -7 -62 4 -83 10 -141 44 -37 21 -77
42 -88 45 -19 6 -20 5 -9 -15 28 -52 -36 -35 -92 25 -40 43 -43 44 -65 29 -25
-16 -26 -16 -96 35 -54 39 -58 51 -19 52 15 0 43 7 62 15 21 8 63 13 107 11
65 -2 75 -5 105 -33z m153 12 c39 -17 44 -30 16 -45 -14 -8 -29 -5 -62 12 -23
13 -44 28 -47 35 -5 17 50 15 93 -2z m205 -41 c14 -16 10 -18 -14 -9 -9 3 -16
10 -16 15 0 14 16 11 30 -6z m106 -15 c15 -6 24 -13 21 -16 -8 -9 -67 6 -67
17 0 12 12 11 46 -1z m-911 -49 c3 -5 1 -12 -5 -16 -5 -3 -10 1 -10 9 0 18 6
21 15 7z m975 -59 c0 -26 -25 -5 -28 24 -2 28 -2 28 13 10 8 -11 15 -26 15
-34z m-624 -9 c16 -21 18 -33 5 -33 -12 0 -41 29 -41 41 0 15 22 10 36 -8z
m130 -93 c23 -11 49 -29 59 -40 18 -19 17 -20 -6 -20 -13 0 -49 18 -79 40 -60
44 -47 55 26 20z m614 -25 c0 -25 1 -48 3 -52 8 -25 -183 -2 -205 24 -16 19
-7 24 60 32 35 4 67 14 76 24 10 9 28 17 42 17 22 0 24 -4 24 -45z m-265 5 c3
-5 1 -10 -4 -10 -6 0 -11 5 -11 10 0 6 2 10 4 10 3 0 8 -4 11 -10z m625 -154
c0 -3 -4 -8 -10 -11 -5 -3 -10 -1 -10 4 0 6 5 11 10 11 6 0 10 -2 10 -4z
m-1860 -286 c0 -5 -4 -10 -10 -10 -5 0 -10 5 -10 10 0 6 5 10 10 10 6 0 10 -4
10 -10z m1523 -48 c20 -22 13 -32 -22 -32 -29 1 -61 21 -61 39 0 18 65 13 83
-7z m-1541 -204 c-9 -9 -12 -7 -12 12 0 19 3 21 12 12 9 -9 9 -15 0 -24z m204
-142 c10 -8 16 -18 11 -22 -4 -4 -13 -2 -19 4 -7 7 -20 12 -29 12 -10 0 -21 5
-24 10 -9 15 39 12 61 -4z m395 -137 c43 -13 109 -64 109 -84 0 -7 -8 -16 -17
-20 -22 -8 -214 55 -220 73 -15 37 52 53 128 31z m414 -39 c7 -11 -39 -25 -55
-15 -5 3 -8 11 -5 16 8 12 52 12 60 -1z m-185 -40 c0 -5 -9 -10 -21 -10 -11 0
-17 5 -14 10 3 6 13 10 21 10 8 0 14 -4 14 -10z m-444 -12 c4 -6 3 -13 -3 -15
-6 -2 -18 -10 -29 -17 -17 -13 -16 -15 10 -38 27 -23 27 -25 12 -41 -22 -22
-33 -21 -44 1 -12 23 -23 108 -15 116 11 11 61 7 69 -6z m470 -123 c10 -8 14
-15 7 -15 -19 0 -43 11 -43 21 0 13 14 11 36 -6z m-615 -679 c67 -25 93 -23
118 8 13 15 16 15 40 0 26 -16 221 -214 211 -214 -3 0 -11 -4 -19 -9 -12 -8
-8 -15 17 -36 35 -29 42 -62 15 -72 -9 -4 -64 3 -123 15 -128 26 -225 28 -321
6 -39 -9 -73 -14 -76 -11 -3 3 0 22 7 41 17 52 15 92 -5 130 -18 33 -18 34 3
64 12 16 22 39 22 50 0 12 10 28 22 36 27 19 14 20 89 -8z m775 -194 c-26 -50
-87 -86 -118 -70 -23 11 -23 23 4 58 24 33 43 38 52 15 8 -23 32 -18 51 11 22
34 31 24 11 -14z m1234 18 c0 -5 -7 -10 -16 -10 -8 0 -12 5 -9 10 3 6 10 10
16 10 5 0 9 -4 9 -10z m-1562 -59 c3 -8 -1 -12 -9 -9 -7 2 -15 10 -17 17 -3 8
1 12 9 9 7 -2 15 -10 17 -17z m422 -27 c0 -8 -12 -36 -27 -62 -24 -40 -28 -44
-31 -25 -3 24 35 103 50 103 4 0 8 -7 8 -16z m-74 -21 c-10 -10 -19 5 -10 18
6 11 8 11 12 0 2 -7 1 -15 -2 -18z m-376 -143 c0 -25 -69 -44 -190 -52 -69 -4
-141 -11 -161 -14 -26 -4 -39 -1 -49 11 -24 29 3 40 93 38 45 -1 109 4 142 11
72 17 165 20 165 6z m1462 -172 c-5 -5 -18 -8 -28 -6 -17 3 -17 5 6 28 23 23
25 23 28 6 2 -10 -1 -23 -6 -28z m-52 -348 c0 -5 -2 -10 -4 -10 -3 0 -8 5 -11
10 -3 6 -1 10 4 10 6 0 11 -4 11 -10z m-535 -330 c4 -6 -7 -23 -23 -39 -32
-33 -114 -61 -175 -61 -39 0 -40 0 -22 20 9 10 45 29 79 40 33 11 72 27 86 35
30 17 47 19 55 5z m-627 -134 c3 -12 -1 -17 -10 -14 -7 3 -15 13 -16 22 -3 12
1 17 10 14 7 -3 15 -13 16 -22z m402 -20 c0 -3 -4 -8 -10 -11 -5 -3 -10 -1
-10 4 0 6 5 11 10 11 6 0 10 -2 10 -4z m1045 -556 c3 -5 1 -10 -4 -10 -6 0
-11 5 -11 10 0 6 2 10 4 10 3 0 8 -4 11 -10z m-695 -98 c-18 -33 -43 -70 -56
-83 -23 -22 -24 -22 -24 -2 0 31 95 162 108 149 2 -3 -10 -32 -28 -64z m-233
-14 c11 -13 25 -32 31 -43 14 -28 74 -276 68 -282 -25 -26 -146 246 -146 329
0 25 22 23 47 -4z m268 -284 c-11 -9 -32 -22 -47 -30 -25 -13 -28 -13 -28 0 0
18 46 45 75 45 l20 0 -20 -15z m-1148 -79 c3 -9 -4 -41 -16 -71 -11 -31 -21
-62 -21 -70 0 -30 43 -12 91 37 48 49 52 51 94 47 27 -4 69 -22 116 -51 68
-41 104 -56 181 -72 48 -9 61 -42 48 -118 -13 -73 -3 -107 29 -107 22 0 181
139 263 230 69 75 74 70 63 -58 -4 -48 -7 -141 -6 -207 5 -294 -37 -524 -129
-705 -68 -135 -94 -346 -71 -573 19 -184 24 -184 -161 8 -89 91 -183 193 -209
226 -26 33 -58 68 -71 78 -55 43 -138 52 -227 25 -43 -12 -59 -13 -82 -4 -34
15 -90 67 -133 127 l-33 45 53 107 c29 58 83 183 120 276 56 142 67 180 68
232 2 108 -22 96 -95 -49 -47 -94 -71 -121 -88 -102 -18 20 35 258 87 389 39
97 45 157 18 183 -14 15 -18 14 -43 -5 -32 -23 -50 -67 -98 -235 -37 -127 -65
-270 -65 -334 0 -22 -15 -94 -34 -160 -18 -65 -37 -134 -40 -151 -13 -59 -41
-52 -77 18 -28 56 -24 86 27 174 89 155 91 161 108 310 24 203 74 353 149 448
27 35 151 127 170 127 4 0 10 -7 14 -15z m-1021 -2006 c3 -6 1 -16 -4 -21 -13
-13 -45 8 -36 23 7 12 31 11 40 -2z m114 -154 c0 -16 -27 -28 -36 -14 -7 12
15 41 27 33 5 -3 9 -11 9 -19z m416 -1060 c21 -21 24 -32 19 -58 -17 -86 -25
-87 -54 -6 -32 86 -16 115 35 64z m84 -134 c0 -49 -16 -150 -25 -159 -21 -22
-25 91 -6 161 17 61 31 60 31 -2z m76 -78 c-15 -133 -60 -382 -67 -377 -12 7
-11 183 2 283 12 98 31 151 55 151 14 0 15 -8 10 -57z m458 -529 c17 -45 -4
-406 -29 -485 -9 -27 -34 -23 -41 6 -3 14 1 103 11 197 9 94 14 188 11 209 -7
44 7 89 28 89 7 0 17 -7 20 -16z m186 -433 c0 -86 -37 -340 -51 -355 -12 -13
-11 82 1 219 12 132 28 215 41 215 5 0 9 -36 9 -79z m258 -66 c17 -37 15 -89
-8 -196 -11 -52 -20 -108 -20 -126 0 -17 -5 -35 -11 -39 -9 -5 -10 39 -6 167
6 213 17 257 45 194z m186 -237 c7 -27 -13 -199 -25 -212 -13 -15 -22 41 -15
97 14 113 19 137 26 137 4 0 10 -10 14 -22z m-1227 -144 c-9 -9 -28 6 -21 18
4 6 10 6 17 -1 6 -6 8 -13 4 -17z m912 -191 c0 -34 -1 -36 -11 -16 -6 12 -8
29 -5 37 11 27 17 18 16 -21z"/>
<path d="M8040 12351 c-17 -33 -12 -51 14 -51 33 0 50 23 36 49 -14 26 -36 27
-50 2z"/>
<path d="M6080 11840 c-22 -41 11 -53 54 -19 35 28 33 39 -9 39 -24 0 -37 -6
-45 -20z"/>
<path d="M7143 10502 c4 -5 51 -27 105 -48 53 -21 116 -50 140 -66 54 -35 76
-37 67 -5 -10 33 -21 40 -119 81 -87 37 -206 61 -193 38z"/>
<path d="M6162 10401 c2 -7 7 -12 11 -12 12 1 9 15 -3 20 -7 2 -11 -2 -8 -8z"/>
<path d="M6095 10388 c-11 -27 -2 -83 15 -83 21 0 24 27 7 66 -12 27 -16 31
-22 17z"/>
<path d="M8266 9740 c-57 -47 -104 -68 -125 -55 -17 10 -70 -24 -77 -49 -8
-32 5 -54 82 -142 35 -40 64 -80 64 -89 0 -27 -20 -57 -76 -117 -61 -64 -71
-109 -34 -143 19 -17 22 -17 76 4 67 25 92 26 139 4 43 -21 72 -9 67 27 -4 27
-51 100 -63 100 -20 0 -7 18 21 30 37 15 87 71 96 106 10 37 -9 69 -57 95 -23
13 -49 34 -57 47 -14 22 -13 25 47 80 68 63 74 85 36 126 -37 40 -71 35 -139
-24z"/>
<path d="M6827 8865 c-36 -19 -161 -129 -150 -132 5 -2 42 8 83 22 100 34 170
101 124 119 -22 8 -25 8 -57 -9z"/>
<path d="M1905 8795 c-33 -7 -94 -26 -135 -43 -86 -34 -108 -38 -285 -52 -146
-12 -212 -23 -300 -50 -33 -10 -123 -35 -200 -55 -119 -32 -154 -46 -230 -93
-128 -78 -198 -134 -295 -237 -47 -49 -103 -105 -125 -125 -88 -78 -142 -142
-189 -222 -27 -45 -67 -110 -88 -142 -52 -81 -62 -122 -54 -239 8 -130 21
-154 173 -324 40 -45 80 -97 88 -116 8 -19 19 -88 25 -153 21 -231 24 -246 78
-361 28 -59 54 -124 57 -143 27 -131 83 -206 193 -256 54 -25 95 -54 151 -107
42 -40 108 -98 147 -129 138 -112 237 -259 309 -463 16 -44 39 -96 51 -115 13
-19 31 -55 40 -80 35 -90 93 -150 144 -150 7 0 31 -17 54 -37 23 -21 74 -63
113 -93 45 -35 86 -76 109 -113 53 -82 132 -151 229 -197 46 -22 118 -68 160
-103 157 -127 241 -187 335 -238 135 -73 197 -115 217 -145 l17 -26 -65 -61
c-286 -269 -308 -296 -316 -387 -7 -70 15 -148 56 -200 15 -19 50 -73 78 -120
28 -47 73 -115 100 -152 26 -37 65 -93 86 -125 102 -157 212 -303 307 -409 58
-65 144 -174 191 -243 70 -102 91 -126 110 -126 23 0 24 2 24 78 l0 79 55 20
c59 22 120 62 120 80 0 7 -30 8 -94 3 -152 -11 -225 20 -290 123 -14 23 -58
79 -97 124 -40 46 -98 121 -129 168 -32 47 -85 121 -118 165 l-61 80 140 3
c156 3 201 -7 122 -27 -60 -15 -74 -23 -87 -45 -9 -13 -7 -20 9 -32 20 -16 97
-15 168 2 45 11 31 -12 -28 -42 -35 -18 -55 -35 -55 -46 0 -32 42 -26 90 10
19 15 44 32 55 37 11 6 21 21 23 33 4 26 -29 42 -83 42 -43 0 -54 16 -17 24
75 18 104 45 65 61 -10 4 -81 11 -158 14 -115 6 -147 11 -182 29 -57 30 -56
46 2 38 41 -7 46 -5 72 24 24 26 40 33 108 45 121 21 283 64 324 84 40 21 258
254 334 359 63 86 112 175 136 245 30 85 40 102 55 86 7 -8 34 -68 60 -134 61
-153 148 -320 189 -363 44 -46 97 -60 142 -39 19 9 35 20 35 25 0 5 -14 21
-31 38 -72 67 -153 182 -206 293 -31 64 -85 162 -120 219 -34 56 -76 128 -92
160 -44 86 -93 137 -167 172 -35 17 -80 48 -100 68 -52 53 -100 160 -128 287
-31 143 -78 270 -117 318 -17 21 -28 41 -25 44 11 12 57 -29 92 -82 40 -60 64
-79 112 -89 40 -9 43 9 9 51 -13 15 -36 45 -51 66 l-28 37 25 0 c14 0 49 -18
78 -40 30 -23 64 -43 76 -46 26 -7 99 38 197 119 75 62 94 70 241 106 66 17
203 53 305 81 142 40 205 52 274 55 103 4 106 7 164 105 48 82 60 86 54 17 -3
-38 1 -63 13 -87 15 -29 19 -31 27 -16 5 9 12 50 15 91 5 67 3 77 -21 120 -33
56 -28 85 15 85 17 0 43 -7 58 -15 16 -8 48 -17 72 -20 l44 -6 -32 17 c-41 22
-51 44 -19 44 24 0 56 -28 56 -48 0 -6 9 -16 21 -22 17 -10 19 -18 14 -49 -7
-42 10 -65 42 -59 18 4 19 9 10 100 -7 60 -29 83 -114 117 -43 17 -96 40 -118
50 -22 11 -59 21 -81 24 -23 3 -53 11 -66 18 -151 83 -221 112 -172 71 26 -22
48 -61 39 -70 -10 -10 -105 44 -158 89 -56 48 -93 108 -113 181 -14 54 -19
179 -8 191 4 4 31 -16 61 -43 54 -50 73 -60 73 -40 0 16 -29 70 -56 106 -13
17 -24 35 -24 41 0 5 -9 18 -19 27 -37 34 -86 -6 -111 -91 -12 -37 -10 -52 15
-145 59 -218 66 -240 92 -264 18 -17 23 -29 18 -41 -15 -33 -13 -117 2 -141
19 -31 172 -142 195 -142 27 0 23 8 -27 52 -53 47 -57 60 -12 46 17 -5 40 -12
50 -15 28 -9 20 15 -11 31 -38 20 -142 105 -142 116 0 12 25 2 70 -26 19 -12
69 -35 110 -50 69 -27 150 -86 150 -111 0 -19 -46 -78 -70 -91 -16 -8 -45 -11
-78 -8 -54 5 -97 26 -179 88 -43 31 -63 33 -46 4 4 -8 23 -25 42 -38 52 -35
53 -52 2 -44 l-41 6 17 -34 c15 -32 15 -37 0 -60 -12 -18 -31 -27 -74 -36 -32
-6 -204 -45 -383 -85 -294 -67 -510 -105 -596 -105 -17 0 -37 7 -44 15 -17 21
-30 19 -30 -5 0 -25 -16 -25 -71 -1 -24 11 -116 38 -204 60 -240 60 -277 72
-459 150 -163 69 -263 102 -356 117 -123 19 -418 126 -583 212 -91 47 -181 85
-269 112 -315 98 -388 124 -477 171 -168 88 -238 157 -259 257 -28 130 -94
425 -109 482 -8 36 -16 76 -17 90 -1 23 2 25 34 22 19 -1 64 -12 99 -22 97
-31 143 -26 196 20 11 10 32 20 48 24 30 7 35 27 11 50 -20 21 -51 20 -62 -1
-8 -14 -15 -11 -50 25 -23 23 -46 42 -51 42 -6 0 -19 -20 -30 -45 -12 -26 -27
-45 -36 -45 -9 0 -24 19 -35 45 -21 50 -22 50 -50 33 -14 -9 -25 -10 -36 -3
-20 13 -80 143 -70 152 4 4 21 0 39 -9 18 -9 51 -19 74 -21 24 -3 69 -21 104
-43 51 -31 75 -39 133 -44 39 -3 80 -11 91 -17 11 -6 58 -46 105 -88 111 -100
137 -113 196 -97 25 7 70 28 100 47 53 34 54 35 54 84 0 34 6 56 21 75 32 40
149 95 149 70 0 -16 -78 -107 -102 -120 -16 -8 -28 -18 -28 -23 0 -19 40 -42
67 -39 25 3 29 8 35 51 11 78 77 147 141 147 23 0 47 -16 47 -32 0 -4 -10 -8
-22 -8 -74 0 -118 -31 -132 -94 -7 -30 -2 -31 47 -11 14 6 17 2 17 -23 0 -17
5 -34 12 -38 12 -8 58 42 58 64 0 8 6 12 13 10 8 -3 14 -38 17 -109 5 -112 15
-140 72 -205 121 -137 361 -115 449 41 18 31 38 59 46 62 7 3 37 -11 66 -31
29 -20 64 -36 78 -36 15 0 32 -7 39 -15 19 -23 74 -28 148 -15 37 7 70 14 74
17 4 2 -2 18 -12 36 -33 53 -27 69 48 129 91 73 155 116 200 134 l37 15 -51
-48 c-28 -26 -81 -74 -117 -106 -62 -54 -110 -117 -88 -117 5 0 48 34 96 75
48 41 97 75 108 75 25 0 13 -16 -54 -66 -27 -21 -55 -52 -64 -69 -8 -18 -21
-38 -30 -45 -32 -27 -17 -57 73 -148 99 -101 148 -125 271 -138 89 -8 114 -26
151 -108 15 -34 39 -72 53 -85 23 -21 29 -22 60 -12 20 7 66 34 104 60 80 56
327 177 393 192 25 6 69 22 99 37 47 23 71 27 184 32 l130 6 68 74 68 75 30
-18 c125 -74 311 -61 366 26 23 37 54 45 87 23 34 -22 298 -25 350 -3 19 8 39
20 42 26 12 19 26 12 26 -13 0 -27 24 -56 45 -56 25 0 26 -18 5 -59 -18 -37
-20 -59 -20 -263 -1 -309 -10 -411 -40 -443 -12 -13 -32 -25 -44 -27 -16 -2
13 -27 117 -101 75 -54 142 -95 147 -92 21 13 8 39 -51 100 -60 63 -61 65 -55
107 4 24 11 124 16 223 23 402 19 377 98 538 99 201 114 251 113 367 -2 170
-36 362 -87 482 -42 101 -129 242 -190 308 -40 43 -77 70 -128 95 -39 19 -93
47 -121 63 -27 15 -75 38 -105 51 -78 32 -455 140 -583 167 -59 12 -129 29
-155 38 -26 8 -129 33 -228 55 -100 22 -233 54 -296 70 -63 16 -175 39 -249
50 -74 12 -170 28 -214 35 -44 8 -228 38 -410 66 -280 44 -356 52 -505 55 -96
3 -199 9 -229 15 -63 12 -60 12 -136 -5z m185 -135 c0 -10 -31 -23 -38 -15 -8
7 19 35 29 29 5 -3 9 -9 9 -14z m-82 -19 c10 -6 7 -10 -13 -15 -30 -8 -41 -3
-30 13 7 13 25 14 43 2z m222 1 c0 -12 -44 -31 -90 -38 -27 -4 -40 -3 -40 5 0
6 1 11 3 11 1 0 20 7 42 15 45 16 85 19 85 7z m-190 -62 c0 -10 -32 -30 -49
-30 -19 0 -12 17 12 28 28 14 37 14 37 2z m240 0 c0 -5 -5 -10 -11 -10 -5 0
-7 5 -4 10 3 6 8 10 11 10 2 0 4 -4 4 -10z m-530 -35 c-7 -8 -20 -15 -29 -15
-13 1 -13 3 3 15 26 19 42 19 26 0z m610 5 c0 -5 -4 -10 -10 -10 -5 0 -10 5
-10 10 0 6 5 10 10 10 6 0 10 -4 10 -10z m600 1 c0 -11 -51 -21 -104 -21 -38
1 -40 2 -22 15 21 16 126 21 126 6z m-1301 -47 c-7 -9 -47 -33 -90 -54 -75
-38 -144 -100 -119 -108 6 -2 82 30 168 71 86 42 168 78 182 82 24 6 24 5 -7
-22 -17 -15 -68 -55 -113 -88 -88 -65 -140 -117 -140 -140 0 -27 20 -15 99 58
43 40 93 79 112 87 19 7 68 33 111 57 50 29 93 46 127 50 28 3 51 3 51 0 0 -3
-51 -33 -112 -68 -211 -117 -308 -186 -308 -220 0 -30 23 -23 91 29 138 105
284 185 427 236 108 38 88 -2 -24 -48 -106 -43 -309 -155 -339 -186 -24 -25
-29 -40 -32 -86 -1 -37 -9 -64 -20 -77 -10 -11 -63 -41 -118 -67 -86 -41 -113
-60 -197 -141 -73 -70 -104 -109 -123 -152 -15 -32 -24 -61 -21 -64 9 -10 34
16 90 97 55 78 132 154 147 144 16 -10 -15 -55 -62 -89 -55 -40 -109 -113
-109 -149 0 -40 25 -31 53 17 56 95 216 238 284 252 l28 7 -34 -29 c-18 -15
-75 -68 -126 -118 -67 -66 -96 -103 -110 -138 -35 -94 9 -74 76 34 40 65 57
81 139 136 94 62 189 113 211 113 25 0 -16 -32 -110 -85 -120 -67 -161 -107
-212 -206 -48 -93 -82 -125 -141 -134 -84 -12 -97 -17 -137 -46 -49 -35 -94
-117 -89 -162 2 -26 -1 -32 -16 -32 -61 0 -39 96 39 170 30 28 55 57 56 65 6
31 -12 69 -51 104 -72 64 -110 52 -352 -116 -44 -29 -33 -5 30 67 34 40 92 91
144 126 47 32 89 63 93 69 3 5 26 10 51 10 41 0 51 5 102 53 31 30 84 74 118
100 59 45 94 84 94 108 0 26 -83 0 -176 -56 -53 -31 -98 -54 -101 -51 -12 12
70 76 142 112 41 20 75 41 75 45 0 25 -93 28 -177 6 -51 -14 -52 -13 -50 7 1
15 -7 25 -30 36 -18 8 -33 21 -33 28 0 7 -9 20 -20 29 -11 10 -20 22 -20 28 1
19 392 239 520 292 66 27 77 28 59 7z m1101 12 c0 -11 -94 -46 -122 -46 -30 0
-31 1 -16 16 9 9 31 20 49 24 37 9 89 12 89 6z m-350 -26 c0 -17 -322 -170
-359 -170 -51 0 107 93 219 128 36 11 81 28 100 36 43 19 40 18 40 6z m560
-15 c-18 -18 -80 -32 -80 -18 0 13 39 31 70 32 21 1 23 -1 10 -14z m500 -5 c0
-5 -3 -10 -7 -10 -5 0 -19 -3 -33 -6 -24 -5 -24 -5 -6 10 22 18 46 21 46 6z
m-2380 -4 c0 -3 -4 -8 -10 -11 -5 -3 -10 -1 -10 4 0 6 5 11 10 11 6 0 10 -2
10 -4z m1725 -26 c-9 -10 -47 -29 -84 -41 -71 -23 -131 -55 -131 -70 0 -18 52
-8 146 27 103 38 164 52 164 38 0 -5 -16 -18 -34 -28 -41 -22 -82 -63 -73 -73
4 -3 42 8 85 25 81 34 122 40 122 19 0 -7 -9 -18 -20 -25 -49 -30 6 -50 75
-26 26 8 49 13 52 10 3 -3 -5 -21 -17 -41 -12 -20 -20 -39 -16 -42 3 -3 43 10
88 30 126 54 230 87 300 94 35 3 61 4 58 1 -3 -3 -50 -22 -104 -42 -55 -20
-120 -48 -145 -63 -41 -24 -43 -27 -25 -35 21 -10 33 -6 218 62 32 11 73 20
90 18 31 -3 31 -3 -25 -35 -51 -29 -83 -63 -59 -63 5 0 66 18 135 40 141 45
212 60 201 42 -4 -6 -38 -21 -76 -32 -81 -24 -132 -61 -112 -81 10 -11 21 -11
55 -1 187 53 218 54 139 3 -29 -18 -52 -37 -52 -42 0 -12 -7 -14 152 31 157
44 158 44 158 31 0 -5 -34 -21 -75 -36 -141 -52 -111 -73 49 -36 44 11 101 22
126 26 42 5 44 5 26 -9 -11 -9 -40 -23 -65 -32 -92 -34 -96 -73 -5 -54 27 6
67 13 89 16 l40 5 -37 -22 c-21 -13 -38 -27 -38 -31 0 -15 68 -8 174 17 72 18
111 23 123 17 15 -9 14 -11 -3 -20 -11 -6 -37 -13 -59 -17 -55 -9 -125 -35
-125 -46 0 -15 63 -10 213 15 78 14 196 32 262 40 136 17 195 32 195 48 0 11
-73 9 -315 -8 -74 -5 -78 -4 -55 10 72 43 319 47 420 8 58 -23 150 -88 158
-111 5 -15 -17 -13 -128 13 -82 20 -173 20 -303 2 -56 -8 -142 -20 -191 -26
-93 -12 -186 -41 -206 -65 -21 -25 16 -30 93 -11 38 9 72 14 75 11 3 -3 -4
-15 -16 -28 -12 -13 -22 -26 -22 -30 0 -4 27 -7 60 -7 67 0 74 -9 38 -48 l-23
-25 48 7 c26 3 68 9 94 13 77 11 42 -13 -56 -37 -50 -12 -98 -28 -107 -35 -15
-11 -21 -9 -36 9 l-18 21 -30 -35 c-17 -19 -51 -56 -77 -83 -25 -26 -43 -50
-40 -53 6 -6 65 22 90 44 15 13 17 13 17 0 0 -26 -38 -65 -105 -107 -36 -23
-65 -48 -65 -56 0 -21 17 -18 75 10 27 13 51 23 52 21 11 -10 -45 -57 -85 -72
-26 -9 -75 -28 -110 -41 -35 -14 -66 -22 -69 -19 -3 3 2 17 11 30 9 14 16 27
16 30 0 6 -45 -12 -212 -86 -76 -34 -140 -59 -144 -56 -11 11 15 46 51 67 19
11 35 25 35 31 0 13 3 13 -65 -10 -130 -45 -47 13 141 99 72 32 156 73 187 91
31 17 62 30 69 28 18 -6 -64 -84 -119 -112 -42 -22 -45 -25 -22 -26 35 0 133
66 193 129 41 45 46 55 45 93 -1 24 2 55 6 71 10 36 -16 37 -44 1 -17 -22 -22
-24 -27 -10 -10 26 -33 19 -93 -26 -65 -50 -111 -80 -111 -72 0 3 11 22 25 42
30 44 18 53 -27 19 -52 -39 -88 -54 -209 -88 -169 -47 -321 -125 -412 -214
-57 -56 -44 -75 23 -33 111 69 338 188 357 188 21 0 -35 -39 -107 -75 -48 -24
-100 -54 -116 -67 -16 -14 -54 -39 -84 -57 -74 -45 -107 -77 -121 -120 -6 -20
-19 -44 -27 -54 -10 -11 -12 -21 -6 -27 8 -8 46 5 142 47 6 3 12 1 12 -3 0 -5
-27 -26 -60 -48 -34 -21 -65 -47 -71 -57 -12 -24 -13 -24 67 6 125 47 122 24
-7 -50 -43 -25 -79 -52 -79 -60 0 -23 26 -18 97 20 79 42 99 45 81 13 -6 -13
-11 -33 -9 -46 1 -13 -4 -33 -12 -45 -21 -32 -205 -170 -217 -162 -27 17 6 57
108 129 49 35 59 56 27 56 -8 0 -42 -19 -77 -43 -35 -24 -69 -46 -75 -51 -23
-14 -13 13 18 49 44 50 17 44 -74 -16 -43 -29 -81 -49 -85 -45 -3 4 19 32 51
63 84 81 74 99 -23 38 -30 -19 -58 -35 -63 -35 -5 0 0 16 12 36 12 19 21 37
21 40 0 2 -23 -7 -51 -21 -125 -64 -57 16 130 150 66 48 111 87 111 97 0 10 9
32 19 50 22 34 19 51 -5 41 -8 -3 -30 3 -48 12 -33 18 -34 18 -85 -8 -97 -51
-91 -22 7 34 67 39 51 50 -28 19 -29 -11 -55 -18 -58 -16 -2 3 19 20 47 37 28
18 51 36 51 40 0 16 -46 9 -108 -16 -67 -27 -82 -30 -82 -16 0 6 27 20 59 32
33 12 68 30 78 42 18 20 18 20 -22 13 -22 -4 -111 -42 -197 -84 -87 -43 -158
-75 -158 -70 0 19 56 54 216 134 204 101 219 120 57 72 -42 -12 -60 -8 -49 11
7 10 73 36 120 46 29 6 167 130 187 168 18 33 -9 17 -79 -46 -58 -54 -83 -69
-158 -96 -49 -18 -109 -45 -134 -60 -25 -16 -76 -45 -114 -65 -76 -41 -184
-120 -258 -189 -39 -35 -48 -50 -48 -77 0 -24 -10 -42 -39 -71 -46 -46 -61
-49 -61 -11 0 121 117 231 434 411 143 81 170 101 157 114 -7 7 -20 6 -41 -3
-67 -28 -45 12 29 52 64 35 27 47 -69 23 -25 -6 -25 -6 4 18 16 14 50 35 77
48 27 12 49 26 49 31 0 13 -37 9 -77 -7 -44 -19 -53 -19 -53 -1 0 20 56 61
105 76 54 18 27 25 -36 10 -110 -27 -59 28 61 64 104 32 121 42 100 56 -18 12
-34 7 -130 -35 -41 -18 -118 -52 -170 -75 -190 -83 -369 -196 -472 -296 -72
-70 -66 -82 19 -34 65 37 70 37 44 4 -26 -34 -27 -48 -1 -41 34 9 22 -9 -56
-82 -70 -66 -167 -131 -193 -131 -21 0 8 39 49 68 22 15 39 31 40 35 0 17 -47
-6 -128 -60 -45 -31 -85 -53 -89 -49 -11 11 67 84 150 138 44 29 74 54 68 56
-45 15 -292 -169 -340 -254 -36 -63 -57 -82 -73 -66 -7 7 -24 12 -38 12 -54 0
-69 59 -25 100 18 17 25 35 27 73 l3 51 43 1 c23 1 42 0 42 -2 0 -1 -12 -27
-27 -58 -24 -49 -26 -57 -12 -70 13 -14 23 -7 87 64 58 64 88 87 149 118 42
21 76 42 77 48 1 5 -12 12 -28 15 l-30 5 62 53 c63 55 74 80 49 111 -7 9 -21
43 -31 75 -11 37 -29 69 -47 85 -80 72 -117 97 -211 137 -115 50 -161 82 -183
125 -14 26 -14 32 0 59 l16 31 30 -25 c36 -31 88 -42 129 -28 27 10 30 9 30
-9 0 -10 5 -19 10 -19 6 0 65 32 132 71 67 39 156 88 198 109 149 74 373 148
479 159 11 1 10 -4 -4 -19z m-1895 4 c0 -12 -34 -33 -53 -34 -23 0 -12 18 17
30 26 11 36 12 36 4z m1589 -10 c-7 -9 -39 -29 -71 -45 -46 -23 -62 -27 -78
-19 -11 6 -20 15 -20 20 0 20 98 56 159 59 20 1 22 -1 10 -15z m828 -1 c-9 -9
-19 -14 -23 -11 -10 10 6 28 24 28 15 0 15 -1 -1 -17z m323 -3 c-9 -4 -45 -11
-80 -14 -64 -6 -64 -6 -30 8 39 16 136 22 110 6z m-2531 -36 c-13 -15 -39 -33
-57 -41 -18 -7 -71 -43 -117 -78 -47 -35 -98 -71 -113 -79 -51 -27 -152 -58
-167 -52 -27 10 -17 60 18 93 68 63 125 85 114 43 -10 -37 42 -19 159 56 64
41 152 84 173 84 10 0 7 -8 -10 -26z m2085 5 c-7 -11 -34 -12 -34 -1 0 14 11
21 26 15 8 -3 11 -9 8 -14z m231 -8 c-3 -6 -11 -11 -17 -11 -6 0 -6 6 2 15 14
17 26 13 15 -4z m-2175 6 c0 -10 -180 -137 -193 -137 -25 0 -30 20 -11 41 28
31 204 113 204 96z m-346 -26 c6 -10 -22 -37 -29 -29 -8 7 5 38 15 38 5 0 11
-4 14 -9z m2206 0 c0 -5 -7 -11 -15 -15 -15 -5 -20 5 -8 17 9 10 23 9 23 -2z
m-860 -36 c0 -25 -14 -34 -24 -16 -8 12 3 41 15 41 5 0 9 -11 9 -25z m-1510 5
c0 -12 -28 -25 -36 -17 -9 9 6 27 22 27 8 0 14 -5 14 -10z m2450 -20 c0 -5 -7
-10 -16 -10 -8 0 -12 5 -9 10 3 6 10 10 16 10 5 0 9 -4 9 -10z m862 -12 c-5
-5 -20 -8 -33 -6 l-24 5 25 10 c28 12 47 6 32 -9z m-2062 5 c-1 -16 -51 -44
-73 -41 -19 3 -17 6 18 25 43 24 55 27 55 16z m1705 -3 c-3 -5 -16 -10 -28 -9
-21 0 -21 1 -2 9 28 12 37 12 30 0z m-1542 -25 c7 -16 -8 -29 -23 -20 -15 9
-12 35 4 35 8 0 16 -7 19 -15z m2161 -4 c9 -13 -19 -21 -77 -21 -31 0 -47 4
-41 9 18 18 109 27 118 12z m166 -60 c0 -12 -44 -19 -75 -13 -14 2 -22 8 -19
13 7 12 94 12 94 0z m229 -80 c11 -7 10 -11 -5 -19 -45 -23 -193 -21 -155 2
37 24 134 34 160 17z m-3944 -41 c-3 -5 -11 -10 -16 -10 -6 0 -7 5 -4 10 3 6
11 10 16 10 6 0 7 -4 4 -10z m-85 -50 c0 -5 -5 -10 -11 -10 -5 0 -7 5 -4 10 3
6 8 10 11 10 2 0 4 -4 4 -10z m-180 -72 c0 -14 -40 -58 -52 -58 -14 0 -9 16
13 44 22 28 39 34 39 14z m645 2 c-3 -5 -11 -10 -16 -10 -6 0 -7 5 -4 10 3 6
11 10 16 10 6 0 7 -4 4 -10z m-161 -18 c8 -13 -186 -198 -234 -222 -61 -30
-90 -59 -90 -88 0 -21 -3 -23 -29 -17 -25 5 -32 2 -47 -22 -64 -104 -74 -112
-118 -92 -45 21 -28 78 43 142 49 44 117 79 196 102 52 15 71 29 140 96 107
105 127 120 139 101z m-334 -12 c0 -21 -39 -86 -68 -113 -37 -35 -73 -33 -86
4 -5 15 -5 35 -1 45 7 18 8 18 12 2 7 -27 17 -22 73 27 50 45 70 54 70 35z
m4255 -32 c-21 -8 -257 -37 -264 -32 -18 15 221 56 264 45 19 -4 19 -4 0 -13z
m-4125 -28 c0 -17 -26 -64 -46 -82 -11 -9 -37 -19 -59 -23 l-40 -7 65 60 c65
61 80 71 80 52z m3810 -5 c0 -10 -10 -15 -27 -15 -27 1 -27 1 -9 15 25 19 36
19 36 0z m-3920 -4 c0 -5 -7 -14 -15 -21 -16 -14 -18 -10 -9 14 6 17 24 22 24
7z m4527 -2 c38 -14 73 -48 73 -71 0 -24 -5 -23 -58 8 l-45 26 -193 -4 c-107
-2 -194 0 -194 3 0 33 348 64 417 38z m-4226 -63 l-21 -33 30 -6 c37 -8 38
-21 5 -43 -34 -22 -89 -8 -93 23 -4 27 53 93 80 93 19 0 19 0 -1 -34z m3743
14 c-5 -5 -25 -13 -44 -16 -37 -7 -33 10 5 19 36 9 50 8 39 -3z m-3644 -9 c0
-12 -20 -25 -27 -18 -7 7 6 27 18 27 5 0 9 -4 9 -9z m1768 -3 c-3 -7 -13 -15
-24 -17 -16 -3 -17 -1 -5 13 16 19 34 21 29 4z m-954 -23 c-4 -9 -15 -20 -26
-26 -15 -8 -17 -14 -9 -22 6 -6 11 -19 11 -29 0 -19 -115 -158 -130 -158 -26
0 -5 39 46 87 52 50 61 73 28 73 -26 0 -14 26 28 58 46 35 60 40 52 17z m236
-10 c-7 -9 -15 -13 -17 -11 -7 7 7 26 19 26 6 0 6 -6 -2 -15z m-1545 -14 c-18
-30 -222 -161 -250 -161 -3 0 -5 11 -5 25 0 13 -8 29 -17 34 -16 10 -14 15 24
51 45 42 70 52 58 23 -25 -61 8 -66 88 -15 75 48 116 65 102 43z m4288 2 c-13
-2 -33 -2 -45 0 -13 2 -3 4 22 4 25 0 35 -2 23 -4z m-2055 -19 c17 -3 32 -10
32 -15 0 -12 -40 -36 -72 -44 -24 -6 -28 -4 -28 14 0 35 -45 26 -113 -23 -84
-59 -107 -70 -107 -53 0 11 136 110 179 129 16 7 45 5 109 -8z m-1088 -1 c-1
-5 -34 -44 -75 -88 -41 -44 -75 -88 -75 -98 0 -19 27 -49 75 -84 16 -12 27
-24 23 -28 -3 -4 -43 -3 -87 1 l-81 7 0 34 c0 51 24 89 113 181 71 72 108 98
107 75z m295 -34 c0 -11 -146 -119 -161 -119 -13 0 55 76 95 106 45 35 66 39
66 13z m3298 4 c60 -67 127 -390 97 -463 -17 -41 -26 -38 -34 10 -6 41 -19 52
-30 25 -9 -25 -25 -17 -40 19 -25 60 -79 82 -124 50 -12 -8 -30 -14 -40 -12
-12 3 -3 13 33 36 82 54 81 86 -3 43 -66 -34 -194 -69 -332 -90 -153 -24 -210
-38 -210 -50 0 -11 61 -21 133 -21 103 0 60 -30 -75 -51 -54 -9 -87 -10 -105
-3 -27 10 -28 12 -26 72 3 66 2 68 -28 51 -19 -10 -20 -8 -14 43 4 29 13 72
22 96 13 37 23 47 76 73 83 42 139 58 230 66 127 10 91 -18 -61 -47 -138 -26
-150 -32 -145 -67 4 -23 0 -31 -19 -40 l-23 -11 30 -12 c24 -10 53 -9 148 5
175 26 171 4 -8 -35 -110 -23 -132 -35 -88 -44 63 -14 328 36 491 92 107 37
114 38 125 21 19 -30 37 -3 37 55 -1 102 -54 168 -147 182 -79 12 -431 -52
-542 -98 -55 -23 -78 -28 -90 -21 -23 15 -20 33 11 56 26 19 63 26 438 76 36
5 117 9 181 10 99 1 118 -2 132 -16z m-4417 -41 c-8 -16 -67 -77 -130 -136
-115 -107 -116 -108 -116 -76 0 47 38 117 88 160 48 43 116 79 150 80 21 0 22
-1 8 -28z m-706 -12 c0 -26 -39 -128 -52 -136 -18 -11 -29 19 -24 66 3 34 11
50 33 67 34 28 43 29 43 3z m556 5 c-26 -19 -42 -19 -26 0 7 8 20 15 29 15 13
-1 13 -3 -3 -15z m994 -13 c0 -14 -39 -46 -47 -39 -3 4 2 16 12 27 19 21 35
26 35 12z m3490 -1 c0 -5 -7 -12 -16 -15 -22 -9 -190 -20 -183 -12 24 26 199
50 199 27z m-2439 -31 c-22 -19 -41 -26 -41 -15 0 5 51 34 60 34 3 0 -6 -9
-19 -19z m-151 -5 c-7 -8 -17 -15 -22 -15 -6 0 -5 7 2 15 7 8 17 15 22 15 6 0
5 -7 -2 -15z m1520 -30 c-18 -19 -63 -50 -99 -69 -75 -39 -271 -119 -278 -113
-7 7 79 53 132 71 28 9 97 45 155 80 58 35 109 65 114 65 6 1 -5 -15 -24 -34z
m-2508 -17 c-7 -7 -12 -8 -12 -2 0 14 12 26 19 19 2 -3 -1 -11 -7 -17z m1048
3 c0 -5 -51 -45 -112 -89 -122 -87 -204 -162 -175 -162 9 0 58 29 109 65 51
35 111 74 133 85 36 19 34 15 -25 -37 -36 -32 -117 -108 -181 -170 -98 -96
-120 -113 -147 -113 -18 0 -32 3 -32 8 0 4 19 25 42 46 25 24 37 41 29 44 -29
10 -129 -55 -217 -140 -50 -48 -94 -88 -97 -88 -16 0 -5 40 22 81 33 49 136
138 221 190 30 18 93 67 140 107 129 112 204 159 288 181 1 1 2 -3 2 -8z m155
-1 c-3 -5 -10 -10 -16 -10 -5 0 -9 5 -9 10 0 6 7 10 16 10 8 0 12 -4 9 -10z
m-305 -10 c0 -5 -4 -10 -10 -10 -5 0 -10 5 -10 10 0 6 5 10 10 10 6 0 10 -4
10 -10z m2743 -4 c9 -22 -10 -32 -108 -55 -131 -32 -141 -33 -132 -25 9 10
208 93 223 93 7 1 14 -5 17 -13z m-268 -16 c-3 -5 -18 -10 -33 -10 -21 0 -24
2 -12 10 20 13 53 13 45 0z m-1183 -32 c-6 -6 -15 -8 -19 -4 -4 4 -1 11 7 16
19 12 27 3 12 -12z m1076 1 c-30 -17 -187 -34 -199 -22 -15 15 56 31 146 32
52 0 65 -2 53 -10z m-2908 -36 c0 -10 -42 -53 -52 -53 -5 0 -2 14 7 30 14 26
45 42 45 23z m-898 -8 c5 -6 -11 -61 -24 -81 -4 -7 -24 -15 -43 -18 -26 -5
-42 -17 -62 -46 -14 -22 -26 -40 -27 -40 0 0 0 28 0 62 l1 63 63 33 c62 32 81
37 92 27z m658 -4 c0 -13 -40 -61 -51 -61 -15 0 -10 32 8 52 17 19 43 24 43 9z
m1180 -5 c0 -3 -4 -8 -10 -11 -5 -3 -10 -1 -10 4 0 6 5 11 10 11 6 0 10 -2 10
-4z m-2672 -108 c4 -69 -15 -79 -41 -23 -28 58 -21 88 18 83 17 -3 20 -11 23
-60z m3452 22 c0 -5 -5 -10 -11 -10 -5 0 -7 5 -4 10 3 6 8 10 11 10 2 0 4 -4
4 -10z m700 -26 c0 -13 -21 -44 -30 -44 -14 0 -12 24 2 38 13 13 28 16 28 6z
m-3210 -38 c0 -15 -18 -31 -26 -23 -7 7 7 37 17 37 5 0 9 -6 9 -14z m1760 5
c0 -19 -32 -41 -58 -41 l-27 1 28 24 c28 25 57 33 57 16z m2080 -11 c0 -5 -8
-10 -17 -10 -10 0 -28 -3 -40 -6 -13 -4 -23 -2 -23 4 0 10 23 18 63 21 9 0 17
-3 17 -9z m-752 -12 c19 -19 15 -24 -44 -58 -30 -17 -63 -43 -71 -58 -18 -30
-73 -79 -73 -64 0 30 141 192 168 192 4 0 13 -5 20 -12z m881 -1 c13 -16 5
-27 -21 -27 -18 0 -25 20 -11 33 10 10 19 8 32 -6z m-2509 -6 c0 -5 -7 -12
-16 -15 -14 -5 -15 -4 -4 9 14 17 20 19 20 6z m2260 -5 c0 -15 -21 -26 -52
-26 -20 0 -21 1 -3 20 21 23 55 27 55 6z m-3210 -4 c0 -19 -67 -85 -78 -78
-20 12 -13 44 14 65 27 21 64 28 64 13z m2315 -11 c-3 -6 -11 -11 -17 -11 -6
0 -6 6 2 15 14 17 26 13 15 -4z m-495 4 c0 -8 -61 -37 -67 -32 -3 3 8 12 24
21 29 16 43 19 43 11z m600 -15 c0 -5 -5 -10 -11 -10 -5 0 -7 5 -4 10 3 6 8
10 11 10 2 0 4 -4 4 -10z m-1170 -15 c0 -8 -7 -15 -15 -15 -16 0 -20 12 -8 23
11 12 23 8 23 -8z m-960 -10 c-7 -9 -15 -13 -17 -11 -7 7 7 26 19 26 6 0 6 -6
-2 -15z m3050 6 c0 -15 -79 -40 -332 -106 -155 -39 -168 -41 -168 -20 0 34 49
49 280 89 47 7 108 21 135 29 59 18 85 20 85 8z m-2498 -131 c-100 -98 -132
-123 -132 -105 0 16 32 64 62 92 39 38 171 131 178 126 2 -2 -46 -53 -108
-113z m1280 87 c-33 -34 -140 -97 -164 -97 -20 0 21 34 102 84 88 54 106 58
62 13z m1448 7 c0 -37 -40 -104 -62 -104 -29 0 -24 61 8 99 32 38 54 40 54 5z
m-3240 -15 c-10 -17 -30 -27 -30 -13 0 15 22 44 31 39 5 -4 5 -13 -1 -26z
m1117 7 c-7 -17 -106 -70 -114 -62 -10 10 20 37 66 61 49 25 57 25 48 1z m258
14 c-3 -5 -11 -10 -16 -10 -6 0 -7 5 -4 10 3 6 11 10 16 10 6 0 7 -4 4 -10z
m285 -10 c0 -5 -4 -10 -10 -10 -5 0 -10 5 -10 10 0 6 5 10 10 10 6 0 10 -4 10
-10z m777 -7 c-9 -9 -19 -14 -23 -11 -10 10 6 28 24 28 15 0 15 -1 -1 -17z
m-1947 -3 c0 -5 -5 -10 -11 -10 -5 0 -7 5 -4 10 3 6 8 10 11 10 2 0 4 -4 4
-10z m1810 1 c0 -11 -56 -41 -77 -41 -25 0 -13 21 20 35 38 17 57 19 57 6z
m-2382 -76 c-2 -38 -8 -60 -16 -63 -11 -3 -12 0 -3 16 17 32 13 42 -14 42 -31
0 -31 13 -4 52 29 40 41 25 37 -47z m1282 50 c-7 -8 -20 -15 -29 -15 -13 1
-13 3 3 15 26 19 42 19 26 0z m-2115 -15 c0 -7 -6 -15 -12 -17 -8 -3 -13 4
-13 17 0 13 5 20 13 18 6 -3 12 -11 12 -18z m555 1 c-10 -20 -30 -37 -30 -26
0 11 25 45 33 45 4 0 3 -9 -3 -19z m1490 -16 c0 -2 -10 -10 -22 -16 -21 -11
-22 -11 -9 4 13 16 31 23 31 12z m665 -15 c-10 -11 -48 -37 -84 -58 -83 -46
-81 -46 -81 -33 0 13 148 111 168 111 13 0 12 -3 -3 -20z m-2030 -19 c-3 -6
-11 -11 -17 -11 -6 0 -6 6 2 15 14 17 26 13 15 -4z m3089 10 c3 -5 -3 -11 -14
-14 -20 -5 -35 5 -23 17 9 9 31 7 37 -3z m-4264 -11 c8 -5 12 -11 9 -14 -3 -3
-14 1 -25 9 -21 16 -8 20 16 5z m2360 0 c0 -5 -8 -10 -17 -10 -15 0 -16 2 -3
10 19 12 20 12 20 0z m2160 1 c0 -14 -87 -81 -104 -81 -24 0 -20 10 21 52 34
35 83 52 83 29z m-2270 -11 c0 -5 -4 -10 -10 -10 -5 0 -10 5 -10 10 0 6 5 10
10 10 6 0 10 -4 10 -10z m1451 -13 c-13 -13 -26 -3 -16 12 3 6 11 8 17 5 6 -4
6 -10 -1 -17z m464 13 c7 -12 -42 -36 -53 -26 -4 4 2 14 12 22 23 17 33 18 41
4z m-1710 -20 c-10 -11 -20 -18 -23 -15 -7 6 18 35 31 35 5 0 2 -9 -8 -20z
m763 -2 c-2 -6 -10 -14 -16 -16 -7 -2 -10 2 -6 12 7 18 28 22 22 4z m175 -9
c-16 -17 -183 -84 -183 -73 0 42 90 89 180 93 l24 1 -21 -21z m677 16 c0 -10
-64 -33 -77 -28 -20 8 -15 21 10 26 35 7 67 8 67 2z m-1770 -22 c-1 -22 -87
-93 -112 -93 -20 0 -3 23 43 60 49 39 69 48 69 33z m1560 -12 c0 -23 -16 -36
-25 -21 -9 14 1 40 15 40 5 0 10 -9 10 -19z m-1680 -5 c0 -2 -7 -9 -15 -16
-12 -10 -15 -10 -15 4 0 9 7 16 15 16 8 0 15 -2 15 -4z m990 -6 c0 -5 -2 -10
-4 -10 -3 0 -8 5 -11 10 -3 6 -1 10 4 10 6 0 11 -4 11 -10z m1438 -2 c-6 -16
-36 -34 -44 -25 -9 9 15 37 33 37 8 0 13 -5 11 -12z m-3578 -23 c-7 -9 -15
-13 -18 -10 -3 2 1 11 8 20 7 9 15 13 18 10 3 -2 -1 -11 -8 -20z m3328 13 c-6
-18 -28 -21 -28 -4 0 9 7 16 16 16 9 0 14 -5 12 -12z m-348 -7 c0 -6 -4 -13
-10 -16 -5 -3 -10 1 -10 9 0 9 5 16 10 16 6 0 10 -4 10 -9z m-1900 -28 c-1
-18 -18 -35 -24 -24 -4 6 -4 16 -1 21 7 12 25 13 25 3z m988 -20 c-15 -15 -30
-24 -34 -21 -8 8 32 48 48 48 7 0 0 -12 -14 -27z m-778 11 c0 -29 -86 -114
-116 -114 -17 0 3 38 41 75 39 39 75 58 75 39z m-900 -8 c0 -3 -4 -8 -10 -11
-5 -3 -10 -1 -10 4 0 6 5 11 10 11 6 0 10 -2 10 -4z m1830 -20 c0 -3 -4 -8
-10 -11 -5 -3 -10 -1 -10 4 0 6 5 11 10 11 6 0 10 -2 10 -4z m610 -16 c0 -5
-5 -10 -11 -10 -5 0 -7 5 -4 10 3 6 8 10 11 10 2 0 4 -4 4 -10z m-1720 -35
c-7 -9 -15 -13 -17 -11 -7 7 7 26 19 26 6 0 6 -6 -2 -15z m1185 -26 c-8 -12
-76 -29 -89 -22 -13 9 63 43 81 36 7 -3 10 -9 8 -14z m-420 -32 c-21 -18 -61
-52 -87 -75 -51 -48 -77 -49 -54 -3 14 27 61 63 121 95 51 26 62 17 20 -17z
m-521 -11 c-3 -9 -10 -16 -15 -16 -14 0 -11 28 4 33 16 6 19 3 11 -17z m556
-45 c0 -13 -81 -63 -88 -56 -10 9 67 77 78 70 6 -3 10 -10 10 -14z m-408 -26
c0 -5 -5 -11 -11 -13 -6 -2 -11 4 -11 13 0 9 5 15 11 13 6 -2 11 -8 11 -13z
m202 -70 c10 -26 -5 -45 -35 -45 -34 0 -40 25 -11 46 23 18 39 17 46 -1z
m-2534 -575 c0 -5 -4 -10 -10 -10 -5 0 -10 5 -10 10 0 6 5 10 10 10 6 0 10 -4
10 -10z m165 -119 c3 -5 1 -12 -5 -16 -5 -3 -10 1 -10 9 0 18 6 21 15 7z m115
-78 c0 -10 14 -38 31 -63 63 -94 79 -140 48 -140 -5 0 -23 21 -39 48 -17 26
-45 59 -62 74 l-33 26 18 36 c18 38 37 48 37 19z m228 -49 c14 -10 22 -25 22
-45 0 -35 -15 -38 -31 -6 -7 12 -18 26 -25 30 -18 10 -18 37 -1 37 7 0 23 -7
35 -16z m431 -99 c38 -33 55 -84 48 -149 -3 -34 2 -75 15 -126 19 -68 19 -81
7 -145 -20 -109 -13 -124 87 -201 41 -31 87 -78 107 -108 53 -79 115 -98 137
-41 18 48 11 68 -40 115 -88 82 -64 81 113 -4 118 -57 143 -74 227 -152 69
-65 96 -84 98 -72 2 9 -4 31 -13 48 -19 36 -14 60 12 60 9 0 62 -22 118 -49
55 -27 147 -66 205 -86 234 -83 265 -112 335 -312 6 -17 20 -16 35 2 12 15 6
83 -17 183 -4 17 -1 22 16 22 31 0 48 -48 57 -156 4 -49 13 -101 20 -115 7
-14 42 -51 79 -83 66 -58 95 -99 95 -133 0 -10 9 -26 20 -36 27 -23 26 -81 -3
-132 -13 -22 -48 -58 -82 -82 -68 -47 -254 -243 -232 -243 8 0 18 -7 21 -16 9
-24 -36 -58 -106 -82 -35 -11 -86 -30 -115 -41 -49 -19 -52 -20 -73 -3 -19 15
-23 31 -27 107 -6 102 -12 116 -82 203 -56 70 -60 88 -28 147 23 41 47 52 151
70 25 4 50 18 67 36 16 18 49 36 80 45 58 18 119 70 119 102 0 18 -2 19 -37 6
-21 -7 -46 -13 -56 -14 -10 0 -43 -9 -73 -20 -82 -28 -126 -16 -253 71 -121
82 -170 94 -103 26 23 -23 42 -46 42 -50 0 -30 -101 27 -255 142 -38 29 -83
59 -100 66 -39 16 -83 65 -128 141 -20 33 -45 68 -55 77 -11 10 -57 24 -108
33 -182 31 -277 71 -358 152 -87 85 -115 166 -117 334 0 80 5 128 26 213 20
83 26 129 23 187 -2 46 1 80 7 82 27 12 66 4 94 -19z m-489 -109 c0 -70 1 -74
25 -80 18 -5 27 -17 35 -47 11 -40 13 -41 45 -36 43 7 49 0 25 -33 -26 -37
-25 -42 6 -34 25 6 25 6 18 -45 -4 -28 -4 -51 0 -51 4 0 21 7 37 16 42 21 47
11 15 -34 -43 -62 -31 -81 24 -40 24 17 33 19 42 10 14 -14 17 -76 5 -104 -17
-44 -141 -3 -187 62 -11 16 -25 55 -30 85 -5 31 -30 101 -55 156 -54 117 -66
186 -41 224 27 41 36 29 36 -49z m140 8 c0 -29 -16 -64 -30 -64 -14 0 -12 34
2 65 15 32 28 32 28 -1z m700 -32 c69 -22 158 -50 198 -62 48 -14 72 -26 72
-36 0 -20 -60 -44 -110 -44 -45 0 -69 10 -150 65 -30 21 -95 58 -145 82 l-90
44 50 -4 c28 -2 106 -22 175 -45z m420 -148 c0 -18 -38 -94 -47 -94 -10 0 4
89 17 105 14 17 30 11 30 -11z m300 -94 c0 -5 -2 -10 -4 -10 -3 0 -8 5 -11 10
-3 6 -1 10 4 10 6 0 11 -4 11 -10z m-509 -43 c-8 -8 -11 -5 -11 9 0 27 14 41
18 19 2 -9 -1 -22 -7 -28z m715 -22 c7 -19 14 -42 14 -52 -1 -14 -5 -12 -24
10 -15 19 -28 26 -39 21 -20 -7 -24 25 -5 44 21 21 39 13 54 -23z m-320 -32
c-10 -10 -19 5 -10 18 6 11 8 11 12 0 2 -7 1 -15 -2 -18z m60 -50 c-11 -11
-17 4 -9 23 7 18 8 18 11 1 2 -10 1 -21 -2 -24z m-810 -10 c17 -17 17 -18 -10
-21 -36 -4 -56 4 -56 23 0 21 44 19 66 -2z m969 -13 c3 -5 1 -10 -4 -10 -6 0
-11 5 -11 10 0 6 2 10 4 10 3 0 8 -4 11 -10z m-265 -10 c0 -5 -5 -10 -11 -10
-5 0 -7 5 -4 10 3 6 8 10 11 10 2 0 4 -4 4 -10z m-409 -33 c-13 -13 -26 -3
-16 12 3 6 11 8 17 5 6 -4 6 -10 -1 -17z m739 -39 c0 -19 -18 -43 -25 -36 -4
3 -2 16 5 27 12 24 20 27 20 9z m167 -53 c3 -9 3 -19 -1 -22 -7 -7 -36 16 -36
28 0 15 30 10 37 -6z m43 -159 c0 -3 -4 -8 -10 -11 -5 -3 -10 -1 -10 4 0 6 5
11 10 11 6 0 10 -2 10 -4z m-1029 -303 c13 -16 12 -17 -3 -4 -10 7 -18 15 -18
17 0 8 8 3 21 -13z m184 -113 c13 -15 15 -24 8 -31 -8 -8 -21 -2 -44 20 l-34
30 26 1 c14 0 34 -9 44 -20z m1214 -76 c-17 -20 -29 -7 -29 29 l1 32 19 -24
c16 -18 18 -27 9 -37z m11 -120 c0 -27 -15 -32 -24 -9 -7 19 3 47 15 39 5 -3
9 -16 9 -30z m-806 -44 c70 0 110 -19 88 -42 -21 -21 -87 -13 -136 16 -45 26
-62 44 -30 32 9 -3 44 -6 78 -6z m-374 -444 c0 -2 -7 -20 -15 -39 -21 -51 -19
-109 5 -140 26 -33 25 -39 -5 -25 -75 34 -69 199 8 207 4 1 7 -1 7 -3z m328
-70 c10 -14 27 -53 36 -87 22 -76 17 -81 -79 -73 -110 8 -115 10 -115 43 0 16
3 36 6 45 8 20 102 96 120 96 7 0 21 -11 32 -24z m297 -206 c-7 -12 -72 -30
-109 -30 -43 0 -20 18 35 29 61 12 81 13 74 1z m-356 -36 c37 -8 42 -24 7 -24
-31 0 -56 10 -56 21 0 11 7 11 49 3z"/>
<path d="M2497 8263 c-14 -13 -6 -23 17 -23 33 0 57 10 50 21 -6 10 -57 12
-67 2z"/>
<path d="M2356 8214 c-46 -24 -236 -197 -236 -215 0 -18 19 -7 86 51 38 33
106 85 151 115 45 30 85 59 88 65 12 19 -40 9 -89 -16z"/>
<path d="M2577 8214 c-31 -8 -72 -21 -90 -30 -71 -37 -224 -144 -262 -183 -56
-58 -23 -53 55 10 70 56 137 96 250 149 133 63 145 77 47 54z"/>
<path d="M2632 8140 c-57 -22 -131 -54 -165 -72 -61 -33 -187 -143 -187 -165
0 -22 42 0 98 51 97 88 152 119 342 187 100 36 103 38 60 38 -28 0 -83 -15
-148 -39z"/>
<path d="M2740 8106 c-137 -48 -310 -146 -382 -214 -43 -41 -54 -76 -15 -49
107 76 389 224 483 254 29 9 51 20 48 25 -9 15 -68 8 -134 -16z"/>
<path d="M2890 8080 c-103 -35 -342 -152 -427 -210 -35 -23 -72 -55 -84 -71
-19 -27 -19 -29 -2 -29 22 0 69 28 145 86 69 54 252 144 389 193 56 20 104 42
107 49 6 19 -35 14 -128 -18z"/>
<path d="M3435 8023 c-27 -8 -58 -21 -69 -29 -20 -14 -20 -14 4 -13 14 0 59
13 100 29 57 22 68 29 45 29 -16 0 -52 -7 -80 -16z"/>
<path d="M2980 8011 c-8 -5 -63 -25 -122 -44 -111 -37 -175 -67 -319 -148 -92
-52 -189 -131 -189 -155 0 -20 25 -8 120 59 100 71 301 175 458 237 61 24 112
48 112 52 0 11 -41 10 -60 -1z"/>
<path d="M3633 7993 c-49 -25 -40 -31 30 -21 76 10 97 17 97 29 0 15 -92 9
-127 -8z"/>
<path d="M3281 7956 c-8 -9 -11 -19 -7 -23 9 -9 29 13 24 27 -2 8 -8 7 -17 -4z"/>
<path d="M3790 7943 c-48 -8 -295 -95 -342 -120 -47 -26 -100 -73 -81 -73 5 0
57 22 114 49 57 27 142 61 189 75 123 38 170 56 170 67 0 9 -6 9 -50 2z"/>
<path d="M3420 7915 c-10 -12 -10 -15 4 -15 9 0 16 7 16 15 0 8 -2 15 -4 15
-2 0 -9 -7 -16 -15z"/>
<path d="M3950 7903 c-54 -9 -257 -76 -341 -113 -159 -69 -263 -140 -296 -204
-17 -33 -18 -33 82 38 124 90 349 193 538 247 96 27 107 47 17 32z"/>
<path d="M3275 7837 c-22 -13 -64 -40 -94 -60 -29 -20 -60 -37 -69 -37 -10 0
-13 -3 -6 -10 23 -23 125 35 223 126 13 12 -20 1 -54 -19z"/>
<path d="M3984 7825 c-50 -13 -126 -38 -170 -55 -101 -40 -296 -142 -351 -183
-38 -29 -94 -107 -77 -107 4 0 33 20 63 44 134 105 201 141 385 207 130 47
246 99 246 110 0 5 -1 9 -2 8 -2 0 -44 -11 -94 -24z"/>
<path d="M4124 7821 c-64 -30 -88 -51 -58 -51 23 0 154 61 154 71 0 16 -35 9
-96 -20z"/>
<path d="M3923 7730 c-13 -5 -51 -29 -86 -52 -34 -24 -101 -58 -147 -76 -83
-32 -180 -93 -180 -112 0 -16 17 -12 88 24 37 18 84 36 104 40 22 4 74 33 127
71 49 36 101 70 115 77 15 6 26 17 26 25 0 15 -15 16 -47 3z"/>
<path d="M3070 7655 c-7 -8 -10 -18 -7 -21 8 -8 62 11 62 22 0 16 -41 16 -55
-1z"/>
<path d="M3237 4131 c-40 -41 -67 -78 -67 -90 0 -20 4 -21 36 -15 39 7 40 1 6
-38 -14 -17 -13 -18 16 -18 23 0 44 11 72 36 47 43 58 69 36 93 -9 10 -16 35
-16 59 0 23 -4 42 -8 42 -5 0 -39 -31 -75 -69z"/>
<path d="M3302 3978 c-14 -14 -16 -38 -2 -38 13 0 32 38 22 44 -5 3 -14 0 -20
-6z"/>
<path d="M1040 6921 c0 -21 20 -45 53 -63 35 -19 128 -28 151 -15 12 6 49 11
82 12 64 1 119 25 111 48 -8 26 -70 30 -169 9 -103 -21 -154 -18 -187 12 -24
22 -41 20 -41 -3z"/>
<path d="M1584 6836 c-8 -22 3 -33 18 -18 9 9 9 15 0 24 -9 9 -13 7 -18 -6z"/>
<path d="M4643 6840 c-26 -11 -31 -38 -9 -46 18 -7 77 26 73 41 -5 14 -37 16
-64 5z"/>
<path d="M2090 6786 c0 -7 6 -19 14 -25 19 -16 32 5 16 24 -16 19 -30 19 -30
1z"/>
<path d="M4332 6783 c-10 -4 -10 -8 -1 -19 16 -20 29 -17 29 6 0 20 -5 23 -28
13z"/>
<path d="M1913 6753 c-7 -2 -13 -13 -13 -24 0 -22 28 -25 55 -6 31 24 -1 47
-42 30z"/>
<path d="M4135 6711 c-60 -29 -58 -36 10 -31 35 2 89 26 106 46 21 26 -51 16
-116 -15z"/>
<path d="M4353 6639 c-30 -11 -29 -14 10 -38 19 -11 54 -49 78 -83 60 -84 117
-147 150 -164 38 -19 39 -18 39 16 0 24 -15 44 -80 106 -45 44 -86 93 -94 115
-8 20 -19 39 -23 42 -20 11 -60 14 -80 6z"/>
<path d="M2508 6633 c-29 -3 -38 -9 -38 -23 0 -24 24 -31 102 -29 40 2 77 -4
102 -14 62 -27 93 -18 68 19 -22 34 -140 58 -234 47z"/>
<path d="M3917 6621 c-21 -11 -54 -31 -73 -46 -33 -25 -34 -29 -20 -43 14 -14
19 -14 48 0 45 22 119 88 112 99 -8 14 -26 11 -67 -10z"/>
<path d="M2150 6621 c0 -19 34 -35 106 -47 41 -7 84 -10 95 -6 20 8 19 9 -7
20 -33 16 -141 42 -171 42 -13 0 -23 -4 -23 -9z"/>
<path d="M2420 6548 c0 -16 38 -25 120 -31 47 -3 94 -9 104 -13 13 -5 17 -4
12 4 -4 6 -24 16 -44 22 -54 14 -192 28 -192 18z"/>
<path d="M2805 6540 c-3 -5 -1 -10 4 -10 6 0 11 5 11 10 0 6 -2 10 -4 10 -3 0
-8 -4 -11 -10z"/>
<path d="M3032 6478 c2 -25 8 -34 26 -36 28 -4 30 27 4 51 -27 25 -34 21 -30
-15z"/>
<path d="M2739 6486 c7 -9 23 -16 34 -16 26 0 12 15 -23 25 -22 7 -23 6 -11
-9z"/>
<path d="M2272 6482 c-18 -12 1 -27 53 -41 49 -13 65 -14 65 -1 0 25 -93 58
-118 42z"/>
<path d="M3608 6449 c-19 -11 -25 -49 -8 -49 17 0 70 30 70 39 0 8 -24 21 -38
21 -4 0 -15 -5 -24 -11z"/>
<path d="M2826 6381 c-4 -6 15 -17 49 -27 59 -17 78 -13 54 11 -18 18 -94 31
-103 16z"/>
<path d="M3193 6353 c-7 -3 -13 -11 -13 -19 0 -16 45 -20 55 -5 7 12 -25 30
-42 24z"/>
<path d="M4696 6334 c-11 -30 14 -94 53 -133 56 -56 139 -92 225 -97 136 -9
127 34 -14 62 -108 21 -130 33 -173 91 -19 26 -46 58 -60 71 -22 20 -25 21
-31 6z"/>
<path d="M2422 6319 c2 -7 10 -15 17 -17 8 -3 12 1 9 9 -2 7 -10 15 -17 17 -8
3 -12 -1 -9 -9z"/>
<path d="M2490 6303 c0 -13 45 -33 75 -33 25 0 41 15 26 24 -18 12 -101 19
-101 9z"/>
<path d="M4576 6281 c-22 -25 -14 -54 20 -69 40 -19 51 -14 57 21 4 24 0 36
-15 50 -26 22 -41 22 -62 -2z"/>
<path d="M2900 6251 c0 -10 25 -21 48 -21 15 1 14 3 -2 15 -22 17 -46 20 -46
6z"/>
<path d="M3010 6215 c28 -16 80 -20 80 -6 0 11 -36 21 -75 21 l-30 -1 25 -14z"/>
<path d="M3186 6201 c-7 -10 22 -37 30 -28 9 8 -3 37 -15 37 -5 0 -12 -4 -15
-9z"/>
<path d="M2550 6152 c0 -13 59 -34 72 -26 14 9 -2 21 -39 29 -20 4 -33 3 -33
-3z"/>
<path d="M2930 6126 c0 -14 67 -35 130 -40 l65 -6 -45 21 c-45 20 -150 38
-150 25z"/>
<path d="M7575 6065 c-20 -15 -20 -16 5 -33 59 -42 80 -65 86 -99 9 -46 -15
-97 -58 -123 -46 -28 -78 -25 -124 10 -52 39 -68 39 -60 -2 10 -49 51 -96 96
-109 139 -42 272 143 205 285 -31 65 -110 103 -150 71z"/>
<path d="M2800 6041 c0 -11 44 -28 95 -36 48 -8 38 5 -23 28 -47 19 -72 21
-72 8z"/>
<path d="M7465 6024 c-35 -37 -33 -90 1 -77 30 11 60 103 34 103 -6 0 -22 -12
-35 -26z"/>
<path d="M2580 6031 c0 -5 7 -12 16 -15 24 -9 28 -7 14 9 -14 17 -30 20 -30 6z"/>
<path d="M3030 5965 c35 -20 62 -19 36 0 -11 8 -29 15 -40 15 -19 -1 -19 -2 4
-15z"/>
<path d="M3192 5909 c2 -7 10 -15 17 -17 8 -3 12 1 9 9 -2 7 -10 15 -17 17 -8
3 -12 -1 -9 -9z"/>
<path d="M5160 5851 c0 -10 50 -41 65 -41 4 0 5 10 3 23 -2 17 -11 23 -35 25
-18 2 -33 -1 -33 -7z"/>
<path d="M3104 5815 c11 -8 26 -15 33 -15 22 0 14 8 -19 19 -30 10 -31 9 -14
-4z"/>
<path d="M2975 5730 c3 -5 11 -10 17 -10 5 0 66 -27 135 -60 69 -33 130 -60
134 -60 5 0 9 6 9 13 0 15 -121 77 -195 100 -79 24 -108 29 -100 17z"/>
<path d="M5059 5682 c-15 -13 -20 -25 -15 -37 6 -17 8 -16 31 5 43 40 29 68
-16 32z"/>
<path d="M3050 5570 c0 -5 9 -10 21 -10 11 0 17 5 14 10 -3 6 -13 10 -21 10
-8 0 -14 -4 -14 -10z"/>
<path d="M3156 5540 c6 -6 28 -14 50 -17 36 -6 38 -5 25 10 -8 10 -28 17 -49
17 -25 0 -33 -3 -26 -10z"/>
<path d="M5181 5489 c-13 -5 -22 -12 -19 -15 3 -3 21 2 39 10 37 16 19 21 -20
5z"/>
<path d="M5507 5453 c-9 -2 -15 -9 -12 -14 7 -11 92 -11 120 0 33 13 -63 26
-108 14z"/>
<path d="M5074 5436 c-28 -12 -54 -36 -40 -36 13 0 76 35 76 42 0 10 2 10 -36
-6z"/>
<path d="M5181 5364 c-85 -41 -152 -76 -149 -79 2 -3 63 20 134 50 190 81 196
84 189 95 -3 6 -9 10 -13 9 -4 0 -76 -34 -161 -75z"/>
<path d="M5541 5381 c-11 -7 -11 -9 0 -14 20 -7 112 4 124 14 12 12 -106 11
-124 0z"/>
<path d="M5405 5350 c-3 -5 -2 -10 4 -10 5 0 13 5 16 10 3 6 2 10 -4 10 -5 0
-13 -4 -16 -10z"/>
<path d="M5672 5331 c-11 -6 -10 -9 3 -15 28 -10 57 -7 53 7 -6 15 -38 20 -56
8z"/>
<path d="M5595 5321 c-6 -11 9 -23 19 -14 9 9 7 23 -3 23 -6 0 -12 -4 -16 -9z"/>
<path d="M5257 5299 c-34 -9 -59 -28 -52 -40 6 -9 46 4 77 25 25 18 12 26 -25
15z"/>
<path d="M5435 5270 c-26 -10 -52 -40 -36 -40 25 0 82 30 76 40 -7 12 -13 12
-40 0z"/>
<path d="M5645 5270 c-4 -6 7 -10 25 -10 18 0 29 4 25 10 -3 6 -15 10 -25 10
-10 0 -22 -4 -25 -10z"/>
<path d="M5717 5239 l-49 -39 64 0 c83 0 95 8 74 49 -9 17 -22 31 -29 30 -6 0
-34 -18 -60 -40z"/>
<path d="M4050 5245 c-36 -8 -101 -16 -145 -20 -147 -11 -166 -15 -191 -42
l-24 -25 -35 31 c-20 17 -45 31 -57 31 -17 0 -19 -4 -14 -27 13 -55 12 -56
-31 -67 -23 -6 -45 -14 -49 -18 -9 -9 39 -28 71 -28 33 0 307 -86 380 -120 60
-27 122 -79 300 -250 129 -125 138 -130 204 -130 144 0 276 62 424 199 60 56
122 110 138 121 16 12 29 26 29 31 0 21 -33 6 -92 -44 -170 -145 -227 -185
-247 -180 -29 8 -26 16 15 38 20 10 67 53 105 94 147 157 99 142 -65 -21 -60
-59 -114 -108 -118 -108 -5 0 -21 -6 -36 -14 -15 -7 -38 -17 -52 -21 -23 -7
-23 -5 10 30 19 20 71 65 115 100 124 99 142 145 23 58 -36 -27 -87 -64 -113
-83 -128 -94 -154 -110 -193 -118 -38 -9 -43 -8 -57 15 -9 13 -38 49 -66 79
-59 65 -62 84 -15 84 65 0 51 25 -51 89 -92 57 -56 70 57 21 38 -17 75 -27 84
-24 32 12 15 33 -44 55 -56 20 -59 23 -45 39 24 27 18 68 -15 102 -29 28 -34
30 -84 24 -48 -6 -56 -4 -84 18 -16 15 -40 26 -52 26 -44 0 -6 20 70 36 44 10
77 21 74 26 -7 11 -45 9 -124 -7z m-230 -69 c0 -11 -19 -15 -25 -6 -3 5 1 10
9 10 9 0 16 -2 16 -4z"/>
<path d="M5083 5218 c-13 -6 -23 -15 -23 -20 0 -11 9 -9 55 12 34 16 36 19 15
19 -14 0 -35 -5 -47 -11z"/>
<path d="M5196 5160 c-126 -69 -211 -124 -236 -155 -28 -33 1 -23 79 29 45 30
136 82 202 116 66 34 117 65 114 71 -11 17 -29 10 -159 -61z"/>
<path d="M4160 5205 l-25 -13 28 -7 c30 -8 54 6 43 24 -9 14 -15 13 -46 -4z"/>
<path d="M4313 5207 c-3 -6 2 -16 12 -21 32 -19 75 -58 75 -67 0 -6 -16 -17
-35 -25 -35 -14 -44 -28 -25 -39 16 -10 181 24 236 50 51 22 94 57 94 73 0 5
-12 14 -27 21 -37 17 -320 24 -330 8z"/>
<path d="M5800 5165 c-42 -18 -66 -22 -102 -18 -64 8 -62 -9 5 -43 70 -36 129
-37 164 -2 19 20 24 32 19 51 -9 36 -25 38 -86 12z"/>
<path d="M5444 5144 c-18 -14 -18 -15 4 -4 12 6 22 13 22 15 0 8 -5 6 -26 -11z"/>
<path d="M4810 5095 c-30 -19 -109 -56 -175 -81 -129 -51 -199 -89 -190 -104
3 -5 21 -12 40 -16 19 -3 35 -10 35 -14 0 -4 -36 -22 -79 -40 -78 -31 -111
-55 -111 -79 0 -18 35 -5 89 34 39 27 53 31 89 27 62 -6 84 3 146 59 72 65 73
82 6 77 -27 -1 -46 0 -42 4 4 3 48 23 97 43 74 30 195 106 195 121 0 15 -55
-2 -100 -31z m-225 -205 c-3 -5 -10 -10 -16 -10 -5 0 -9 5 -9 10 0 6 7 10 16
10 8 0 12 -4 9 -10z"/>
<path d="M5270 5077 c-46 -17 -143 -81 -130 -85 16 -6 180 75 180 88 0 13 -6
12 -50 -3z"/>
<path d="M5270 4987 c-137 -72 -341 -209 -425 -287 -66 -61 -96 -80 -158 -100
-29 -9 -50 -21 -47 -26 3 -5 29 -9 58 -9 28 0 52 -2 52 -4 0 -2 -8 -9 -17 -16
-14 -11 -1 -14 80 -20 143 -11 206 4 268 62 17 16 29 21 33 14 15 -23 56 -9
121 41 57 43 75 51 105 50 20 -2 53 5 74 13 21 9 40 14 42 12 2 -2 -6 -22 -18
-45 -13 -22 -20 -44 -16 -47 11 -11 77 25 103 57 33 39 32 58 -2 58 l-27 0 39
40 c21 22 36 43 32 46 -4 4 -35 -5 -69 -19 -76 -33 -78 -33 -71 -6 6 20 3 21
-22 15 -15 -4 -44 -18 -64 -32 -38 -26 -61 -31 -61 -13 0 16 20 51 43 77 25
26 15 28 -58 8 -118 -32 -237 -97 -295 -161 -36 -40 -110 -85 -138 -85 -22 0
-19 4 24 44 176 158 244 208 356 266 65 34 120 65 123 70 9 15 -36 12 -65 -3z
m-65 -217 c-10 -11 -49 -43 -86 -72 -38 -28 -80 -69 -94 -90 -29 -43 -58 -58
-115 -58 -55 0 -58 16 -8 41 24 12 86 53 138 92 136 102 217 144 165 87z"/>
<path d="M5699 4942 c-24 -22 -31 -34 -23 -41 7 -8 18 -3 38 18 41 42 28 62
-15 23z"/>
<path d="M5807 4913 c-10 -9 -9 -23 2 -23 5 0 11 7 15 15 5 15 -5 20 -17 8z"/>
<path d="M5735 4830 c-3 -5 -2 -10 4 -10 5 0 13 5 16 10 3 6 2 10 -4 10 -5 0
-13 -4 -16 -10z"/>
<path d="M5633 4742 c-94 -79 -124 -140 -85 -175 23 -21 35 -21 73 -1 36 18
45 14 29 -15 -15 -29 7 -28 51 2 33 22 159 164 159 180 0 4 -9 7 -19 7 -11 0
-43 -27 -73 -61 -34 -39 -60 -60 -71 -58 -13 3 -8 17 30 71 26 37 44 70 41 73
-3 3 -42 -29 -87 -71 -45 -42 -84 -75 -86 -72 -2 2 21 37 51 77 30 40 54 77
52 83 -2 6 -31 -12 -65 -40z"/>
<path d="M4459 4766 c-54 -19 -103 -56 -90 -69 13 -13 81 16 112 49 29 30 23
35 -22 20z"/>
<path d="M7309 4668 c-49 -17 -58 -68 -37 -215 17 -124 38 -108 38 27 0 43 4
81 9 84 10 7 15 -12 31 -113 11 -75 23 -93 40 -60 16 29 9 133 -15 216 -19 67
-27 75 -66 61z"/>
<path d="M7463 4598 c-10 -17 -17 -260 -8 -296 6 -23 8 -25 16 -9 20 35 39
114 45 188 5 63 4 80 -11 102 -19 30 -30 33 -42 15z"/>
<path d="M8090 3880 c-13 -8 -11 -12 10 -27 75 -52 109 -123 91 -190 -18 -65
15 -92 141 -118 40 -9 92 -23 115 -31 27 -10 55 -14 76 -10 37 7 72 37 65 57
-6 19 -97 49 -182 60 -109 14 -116 19 -116 80 0 78 -44 141 -122 173 -43 18
-57 19 -78 6z"/>
<path d="M7990 3756 c-115 -40 -191 -87 -271 -166 -112 -112 -121 -156 -57
-307 21 -53 38 -78 55 -86 38 -17 56 14 77 128 14 78 26 113 66 183 77 138 98
164 166 197 71 35 96 54 88 66 -9 15 -56 10 -124 -15z m-177 -199 c-40 -66
-93 -124 -93 -101 0 10 54 99 65 106 17 13 37 9 28 -5z"/>
<path d="M7552 3618 c-51 -65 -75 -175 -74 -343 3 -212 32 -329 158 -631 37
-87 106 -278 154 -424 48 -146 106 -305 129 -354 87 -187 257 -406 315 -406
13 0 27 3 30 8 2 4 -11 32 -31 62 -46 72 -104 195 -141 300 -16 47 -56 145
-88 218 -52 117 -63 135 -91 147 -40 17 -49 35 -63 121 -9 53 -26 98 -75 190
-78 146 -138 309 -171 464 -20 91 -26 156 -31 311 -5 182 -4 200 16 257 11 34
21 69 21 77 0 18 -43 20 -58 3z m388 -1569 c26 -49 24 -89 -2 -49 -17 26 -34
90 -24 90 3 0 15 -18 26 -41z"/>
<path d="M4280 3563 c-18 -86 9 -321 37 -330 20 -7 28 45 28 182 0 107 -3 137
-19 168 -10 20 -22 37 -26 37 -5 0 -14 -26 -20 -57z"/>
<path d="M4160 3563 c0 -27 -7 -58 -15 -70 -10 -15 -17 -52 -19 -105 -2 -55
-12 -110 -30 -163 -33 -101 -33 -107 1 -103 25 3 31 14 77 133 43 115 49 139
50 210 1 86 -16 137 -47 143 -14 3 -17 -4 -17 -45z"/>
<path d="M7387 3513 c-44 -156 -56 -481 -23 -608 22 -86 95 -243 124 -269 30
-26 28 -12 -9 96 -61 178 -79 366 -60 623 7 83 13 163 14 180 1 20 -3 30 -14
33 -12 2 -20 -12 -32 -55z"/>
<path d="M8646 3534 c-9 -23 -7 -67 3 -83 14 -23 31 -2 31 38 0 43 -23 73 -34
45z"/>
<path d="M8381 3406 c-12 -13 -36 -59 -53 -102 -26 -69 -31 -95 -35 -204 -6
-154 10 -242 66 -355 54 -109 171 -225 228 -225 36 0 35 16 -2 47 -140 112
-170 161 -205 333 -29 141 -27 214 10 359 42 166 40 199 -9 147z"/>
<path d="M8539 3372 c-55 -62 -74 -116 -74 -212 0 -107 20 -157 73 -185 38
-21 81 -86 104 -157 6 -21 15 -38 20 -38 23 0 29 50 21 166 l-8 119 -27 -2
-26 -1 5 97 c6 107 -1 124 -39 97 -12 -9 -26 -16 -30 -16 -16 0 -8 41 17 90
29 57 30 66 11 73 -9 4 -28 -9 -47 -31z"/>
<path d="M3040 3049 c-7 -11 -9 -23 -6 -26 9 -9 64 17 70 33 9 24 -51 18 -64
-7z"/>
<path d="M3148 2843 c-25 -6 -22 -29 4 -47 29 -21 62 -20 83 0 14 14 14 19 3
29 -15 15 -65 25 -90 18z"/>
<path d="M3640 2738 c-18 -13 -39 -33 -47 -45 -13 -20 -12 -23 8 -33 46 -25
139 26 139 75 0 22 -5 25 -34 25 -18 0 -48 -10 -66 -22z"/>
<path d="M5440 2735 c-12 -14 -8 -28 32 -103 26 -48 66 -132 90 -187 l44 -100
-12 -110 c-7 -60 -13 -137 -15 -170 -2 -69 6 -73 59 -22 128 122 101 297 -86
562 -37 52 -56 90 -56 110 -1 23 -6 31 -22 33 -11 2 -27 -4 -34 -13z m228
-506 c-1 -13 -7 -23 -13 -22 -13 3 -18 30 -11 50 10 24 29 1 24 -28z"/>
<path d="M5320 2675 c0 -2 10 -28 22 -57 18 -43 22 -72 21 -148 0 -82 -7 -116
-46 -250 -29 -101 -42 -158 -35 -165 14 -14 32 13 94 141 85 175 97 263 50
376 -19 45 -73 108 -92 108 -8 0 -14 -2 -14 -5z"/>
<path d="M7972 2578 c-19 -19 -15 -46 22 -154 44 -128 107 -272 155 -354 44
-74 169 -234 209 -268 34 -29 82 -55 82 -45 0 5 -38 53 -85 108 -53 61 -103
134 -131 188 -50 98 -46 115 9 33 61 -93 377 -448 403 -454 10 -2 11 4 5 26
-16 54 -33 76 -141 187 -143 147 -174 191 -284 403 -97 185 -129 239 -179 305
-30 39 -45 45 -65 25z"/>
<path d="M3390 2462 c-24 -8 -25 -8 -5 -19 62 -34 328 -22 293 13 -10 9 -259
15 -288 6z"/>
<path d="M3495 2330 c-11 -18 14 -30 60 -30 37 1 39 2 21 15 -11 8 -25 15 -32
15 -7 0 -19 3 -27 6 -8 3 -18 0 -22 -6z"/>
<path d="M3698 2313 c-74 -8 -33 -33 54 -33 56 0 78 7 78 26 0 14 -42 16 -132
7z"/>
<path d="M3710 2180 l-25 -6 24 -13 c29 -16 108 -18 123 -3 8 8 4 12 -13 16
-55 11 -85 13 -109 6z"/>
<path d="M3904 2179 c-10 -17 13 -36 27 -22 12 12 4 33 -11 33 -5 0 -12 -5
-16 -11z"/>
<path d="M4868 2041 c-124 -64 -229 -141 -191 -141 22 0 313 154 313 166 0 24
-43 15 -122 -25z"/>
<path d="M3810 2050 c-12 -8 -12 -10 3 -16 21 -8 35 2 21 16 -5 5 -15 6 -24 0z"/>
<path d="M3931 2051 c-16 -11 -7 -16 43 -25 39 -7 96 8 96 25 0 12 -121 11
-139 0z"/>
<path d="M5726 2030 c-80 -51 -168 -129 -241 -214 -57 -65 -85 -89 -147 -121
-107 -56 -198 -117 -255 -171 l-48 -45 44 5 c64 7 161 59 227 121 33 30 66 55
74 55 8 0 44 -9 78 -20 151 -47 233 -5 317 164 51 102 66 176 45 226 -16 38
-34 38 -94 0z"/>
<path d="M5043 1981 c-103 -55 -150 -86 -283 -186 -119 -90 -118 -89 -219
-110 -90 -18 -131 -33 -131 -47 0 -13 79 -9 150 8 78 18 147 56 255 138 44 34
140 93 214 131 74 39 136 75 138 82 2 6 -4 16 -14 22 -15 7 -38 -1 -110 -38z"/>
<path d="M4460 2001 c-14 -5 -50 -21 -80 -36 -57 -29 -73 -34 -203 -64 -87
-20 -96 -25 -70 -39 21 -12 153 1 213 20 84 26 197 99 184 119 -6 10 -9 10
-44 0z"/>
<path d="M5269 1970 c-15 -4 -40 -17 -55 -28 -16 -10 -82 -54 -147 -96 -118
-76 -263 -204 -240 -213 6 -2 42 16 80 40 37 24 118 72 178 107 122 69 231
146 239 166 7 19 -24 33 -55 24z"/>
<path d="M5325 1869 c-44 -22 -93 -53 -110 -68 -16 -15 -74 -63 -127 -106 -54
-42 -98 -81 -98 -86 0 -14 -97 -72 -172 -104 -81 -33 -88 -50 -19 -42 62 7 99
26 255 130 68 45 162 105 208 134 83 51 208 156 208 174 0 21 -70 5 -145 -32z"/>
<path d="M4556 1831 c-37 -25 -53 -51 -31 -51 17 0 90 43 100 60 11 17 -38 11
-69 -9z"/>
<path d="M4659 1581 c-42 -13 -70 -31 -64 -42 12 -18 81 -8 140 20 l60 29 -55
0 c-30 0 -67 -3 -81 -7z"/>
<path d="M5380 1575 c-7 -9 -62 -45 -122 -81 -60 -36 -121 -77 -136 -91 l-27
-24 55 5 c104 9 216 71 260 142 18 28 20 37 10 49 -16 19 -24 19 -40 0z"/>
<path d="M4948 1418 c-16 -5 -28 -14 -28 -19 0 -13 47 -11 72 2 17 9 18 13 7
20 -16 10 -16 10 -51 -3z"/>
</g>
</svg>
