<svg height="487pt" viewBox="-92 0 487 487.99456" width="487pt" xmlns="http://www.w3.org/2000/svg" xmlns:xlink="http://www.w3.org/1999/xlink"><linearGradient id="a" gradientUnits="userSpaceOnUse" x1="-111.07872" x2="407.94528" y1="243.994563" y2="243.994563"><stop offset="0" stop-color="#a8ff78"/><stop offset="1" stop-color="#78ffd6"/></linearGradient><path d="m256.496094 47.996094c-2.613282 0-5.222656.085937-7.839844.132812-36.777344-43.492187-96.785156-59.425781-150.292969-39.898437-53.511719 19.527343-89.15625 70.363281-89.273437 127.324219v.113281.328125h.046875c-.019531.742187.070312 1.488281.265625 2.207031.984375 3.429687 4.121094 5.789063 7.6875 5.792969h15.421875v48c.078125 46.367187 28.699219 87.902344 72 104.488281v15.511719h-40.308594c-35.167969.039062-63.667969 28.535156-63.707031 63.703125v104.296875c0 4.417968 3.582031 8 8 8h272c4.417968 0 8-3.582032 8-8v-104.296875c-.039063-35.167969-28.535156-63.664063-63.703125-63.703125h-40.296875v-15.511719c43.304687-16.582031 71.925781-58.121094 72-104.488281v-48h16.578125c2.121093-.003906 4.15625-.84375 5.65625-2.34375l11.703125-11.722656c13.722656-13.726563 17.828125-34.367188 10.398437-52.300782-7.425781-17.933594-24.921875-29.628906-44.335937-29.632812zm-230.398438 72.902344c5.621094-44.875 36.035156-82.757813 78.632813-97.945313 42.597656-15.1875 90.121093-5.089844 122.863281 26.105469-64.347656 4.675781-126.582031 25-181.289062 59.199218zm22.398438 351.097656h-32v-32h32zm0-120v72h-32v-48.296875c.03125-26.335938 21.371094-47.671875 47.707031-47.703125h44.980469l16 16h-68.6875c-4.417969 0-8 3.582031-8 8zm72-35.3125v-15.34375c15.804687 3.539062 32.195312 3.539062 48 0v15.34375l-24 24zm48 43.3125v48h-48v-48zm56 72v40h-160v-112h40v56c0 4.417968 3.582031 8 8 8h64c4.417968 0 8-3.582032 8-8v-56h40zm48 40h-32v-32h32zm-47.703125-144c26.332031.03125 47.671875 21.367187 47.703125 47.703125v48.296875h-32v-72c0-4.417969-3.582032-8-8-8h-68.6875l16-16zm15.703125-136c0 53.019531-42.980469 96-96 96-53.019532 0-96-42.980469-96-96v-48h192zm38.625-73.402344-9.367188 9.375h-224.800781l9.832031-6.175781c60.46875-37.816407 130.359375-57.859375 201.679688-57.839844 12.953125-.015625 24.640625 7.777344 29.601562 19.746094 4.960938 11.964843 2.21875 25.742187-6.945312 34.894531zm0 0" fill="url(#a)"/></svg>