<?xml version="1.0" standalone="no"?>
<!DOCTYPE svg PUBLIC "-//W3C//DTD SVG 20010904//EN"
 "http://www.w3.org/TR/2001/REC-SVG-20010904/DTD/svg10.dtd">
<svg version="1.0" xmlns="http://www.w3.org/2000/svg"
 width="1063.000000pt" height="1280.000000pt" viewBox="0 0 1063.000000 1280.000000"
 preserveAspectRatio="xMidYMid meet">
<metadata>
Created by potrace 1.15, written by Peter Selinger 2001-2017
</metadata>
<g transform="translate(0.000000,1280.000000) scale(0.100000,-0.100000)"
fill="#3f51b5" stroke="none">
<path d="M7103 12786 c-81 -19 -173 -68 -363 -194 -178 -118 -314 -190 -485
-256 -173 -68 -200 -81 -250 -127 -81 -75 -130 -217 -145 -424 -5 -71 -14
-154 -20 -183 -21 -97 2 -208 55 -262 62 -63 72 -65 289 -52 281 18 266 19
266 -24 0 -23 -12 -56 -34 -92 -42 -68 -65 -147 -55 -182 4 -14 7 -58 8 -99 1
-96 26 -149 87 -190 25 -16 58 -32 73 -36 34 -7 81 -50 81 -74 0 -10 -7 -24
-16 -31 -29 -25 -36 -50 -24 -80 17 -41 71 -64 152 -65 70 0 90 14 39 28 -36
9 -91 70 -91 101 0 32 42 91 65 91 22 0 82 -74 140 -171 25 -42 95 -124 188
-220 81 -84 147 -157 147 -164 0 -21 -29 -21 -132 -1 -179 36 -197 36 -248 7
-88 -51 -146 -76 -210 -89 -36 -8 -77 -19 -92 -25 -33 -13 -150 -148 -223
-257 -60 -90 -87 -117 -195 -197 -41 -30 -118 -92 -170 -137 -52 -45 -106 -84
-120 -87 -82 -17 -190 -93 -295 -206 -57 -61 -105 -132 -105 -153 0 -3 12 -10
26 -15 30 -12 27 -35 -13 -89 -89 -118 -66 -381 64 -726 49 -129 158 -353 223
-460 104 -169 149 -290 129 -342 -12 -31 -43 -29 -64 5 -36 57 -68 82 -102 82
-101 0 -97 -142 8 -279 64 -83 69 -94 69 -152 0 -50 5 -64 42 -120 60 -90 231
-258 298 -293 64 -34 110 -73 110 -95 0 -9 9 -29 20 -46 11 -17 20 -47 20 -69
0 -35 -2 -38 -22 -32 -13 4 -70 14 -128 22 -58 8 -144 28 -193 44 -149 52
-452 106 -652 117 -195 10 -836 -30 -1050 -67 -62 -11 -162 -35 -222 -54 -59
-18 -119 -37 -133 -42 -14 -4 -326 -10 -695 -14 -563 -5 -677 -9 -715 -21 -75
-26 -451 -293 -645 -459 -131 -113 -265 -220 -455 -365 -245 -187 -349 -281
-350 -316 0 -8 -12 -26 -27 -40 l-26 -24 16 25 c36 53 11 46 -78 -21 -27 -21
-92 -63 -144 -94 -52 -31 -148 -98 -215 -149 -67 -50 -151 -113 -188 -139 -89
-63 -292 -258 -312 -301 -21 -44 -20 -112 2 -156 25 -51 74 -71 199 -80 58 -4
110 -13 116 -19 9 -9 12 -338 13 -1314 1 -1187 17 -2716 29 -2794 l6 -31 124
-7 c232 -14 289 1 310 81 16 64 13 1542 -4 1682 -14 111 -14 112 -40 112 l-26
0 31 25 c21 16 33 37 38 62 3 21 11 364 16 763 5 459 12 735 19 753 l11 27
2712 0 c1877 0 2724 3 2748 11 49 14 1109 24 1265 11 113 -9 124 -12 167 -42
42 -30 55 -33 147 -39 83 -6 107 -12 129 -29 100 -80 183 -108 293 -98 163 15
359 109 359 171 0 14 7 26 18 29 75 22 535 11 626 -15 47 -13 81 -48 90 -92 6
-27 8 -29 17 -15 5 10 17 18 26 18 12 0 14 8 11 37 -3 21 -8 46 -13 57 -6 14
-5 18 6 14 8 -3 18 -25 22 -49 5 -24 11 -811 14 -1748 l5 -1704 131 5 c73 3
139 9 148 12 14 6 17 37 22 204 13 370 19 2362 9 2677 -5 171 -6 341 -2 380 9
81 30 105 90 105 22 0 46 8 59 19 12 11 45 22 74 26 78 9 160 26 180 36 9 6
17 18 17 28 0 9 12 28 27 42 l26 24 -16 -25 c-21 -30 -21 -40 -2 -40 23 0 87
106 125 206 63 169 87 205 157 230 l38 13 -47 1 c-53 0 -61 11 -24 28 52 24
58 47 67 270 10 248 16 310 35 339 12 19 12 23 1 23 -17 0 -37 148 -37 270 0
59 -5 91 -19 118 -10 20 -22 53 -26 72 -7 33 -6 34 8 15 15 -19 16 -19 23 -2
3 10 12 16 19 13 25 -9 23 6 -5 70 -16 35 -25 64 -20 64 5 0 12 -4 15 -10 3
-5 13 -10 22 -10 12 0 14 7 10 37 -8 48 -23 62 -40 39 -13 -17 -16 -16 -45 20
-36 43 -162 288 -162 313 0 22 -117 253 -158 313 -17 25 -60 77 -95 115 -65
71 -127 154 -127 171 0 23 -43 63 -62 59 -15 -4 -18 -2 -14 10 5 13 0 15 -35
9 l-42 -7 32 36 c35 40 38 57 16 75 -8 7 -15 28 -15 46 0 19 -4 34 -9 34 -24
0 -221 329 -221 369 0 35 -92 181 -197 310 -24 29 -43 62 -43 73 0 12 21 41
48 67 62 60 212 270 255 357 39 80 50 107 72 187 13 48 22 62 51 79 41 24 54
45 54 90 0 18 7 47 16 63 25 46 31 271 11 389 -9 50 -21 166 -26 257 -15 222
-33 289 -131 484 l-81 160 1 88 0 88 -45 48 c-47 51 -54 76 -34 128 39 103 29
190 -34 284 -49 74 -265 299 -324 338 -63 42 -102 41 -221 -10 -127 -53 -186
-59 -322 -29 -78 17 -117 21 -159 15 -101 -13 -112 -11 -149 31 -48 55 -122
165 -177 265 l-47 84 116 110 c141 134 171 171 190 239 9 29 25 61 37 72 32
28 59 93 59 142 0 46 -16 88 -55 141 -14 19 -25 46 -25 62 0 40 -12 67 -59
129 -23 30 -40 59 -38 65 2 5 22 13 45 18 54 11 137 85 153 136 18 61 7 396
-15 446 -33 77 -89 118 -266 195 -52 23 -112 53 -133 67 -20 14 -70 36 -109
49 -40 13 -121 51 -181 85 -59 33 -127 67 -150 75 -118 42 -497 66 -614 40z
m352 -102 c155 -21 243 -47 375 -111 63 -30 160 -73 215 -95 260 -103 343
-175 416 -361 51 -129 35 -177 -57 -177 -51 0 -53 1 -104 58 -29 31 -71 68
-95 82 -23 14 -62 39 -85 57 -89 68 -331 133 -496 133 -63 0 -82 -5 -146 -36
-69 -34 -77 -35 -150 -30 -82 6 -108 -5 -108 -42 0 -30 37 -78 70 -92 29 -12
45 -11 134 10 159 36 203 42 247 30 52 -14 50 -36 -3 -50 -24 -6 -49 -13 -55
-15 -26 -9 -10 -97 20 -117 16 -10 -11 -38 -37 -38 -37 0 -66 -12 -66 -26 0
-10 14 -14 51 -14 56 0 227 -37 347 -75 81 -26 148 -67 220 -133 73 -69 51
-77 -43 -16 -60 40 -96 49 -124 34 -21 -11 -21 -12 -4 -40 9 -17 41 -50 70
-75 28 -25 67 -66 85 -91 l33 -46 5 27 c8 47 29 41 53 -14 24 -56 32 -62 40
-28 4 12 13 31 21 42 15 19 17 18 65 -33 45 -48 52 -52 70 -40 26 16 50 3 70
-37 13 -26 12 -30 -9 -47 -12 -10 -28 -35 -35 -55 -21 -61 -35 -62 -106 -15
-73 49 -109 53 -146 16 -23 -23 -25 -31 -21 -88 3 -38 15 -81 32 -113 14 -29
26 -57 26 -63 0 -40 -87 49 -100 104 -6 23 -16 50 -22 61 -6 11 -10 37 -10 57
2 50 -46 108 -90 108 -18 0 -43 10 -60 25 -35 30 -39 30 -69 6 -20 -16 -24
-30 -27 -95 -3 -48 -9 -80 -18 -87 -23 -19 -63 -2 -81 36 l-17 35 39 40 c43
44 40 57 -17 69 -30 6 -33 10 -33 41 -1 19 -4 40 -8 47 -12 19 -75 33 -148 33
-76 0 -83 -5 -124 -93 -26 -55 -29 -57 -46 -41 -16 14 -33 16 -116 10 -169
-12 -273 -46 -273 -88 0 -20 42 -58 64 -58 12 0 28 -4 36 -10 37 -23 -60 -72
-100 -50 -10 6 -20 22 -22 37 -2 21 -16 37 -56 62 -45 29 -52 38 -47 58 7 28
-12 66 -58 116 -36 38 -63 45 -99 26 -21 -12 -21 -11 0 16 12 15 22 35 22 45
0 22 26 45 71 64 50 21 61 37 53 83 -7 44 11 67 64 82 41 12 51 0 10 -13 -60
-20 -46 -36 34 -37 l73 0 -44 -22 c-54 -27 -70 -49 -52 -71 31 -37 174 -3 226
54 19 20 13 40 -12 40 -13 0 -13 2 -2 16 11 14 10 18 -6 30 -10 8 -35 14 -54
14 l-35 0 30 31 29 32 -70 -6 c-139 -12 -266 -76 -290 -146 -6 -19 -17 -37
-24 -39 -7 -2 -16 -14 -21 -27 -6 -15 -22 -26 -53 -33 -39 -10 -49 -19 -87
-77 -52 -80 -72 -93 -99 -66 -26 26 -44 95 -35 134 9 43 105 135 230 224 189
133 317 199 414 213 70 10 110 32 110 60 0 35 -35 43 -159 37 -132 -6 -252
-34 -321 -75 -25 -15 -76 -43 -115 -62 -38 -20 -96 -51 -128 -69 -31 -18 -63
-31 -70 -28 -22 8 161 177 219 203 69 30 108 85 108 152 1 43 -1 47 -25 50
-30 4 -79 -46 -79 -79 0 -11 -5 -29 -10 -40 -11 -19 -11 -19 -40 2 -34 26 -56
20 -72 -18 -7 -15 -64 -80 -128 -143 -161 -159 -200 -247 -175 -388 7 -35 8
-65 3 -68 -4 -3 -28 9 -53 26 -60 42 -101 56 -119 41 -21 -17 -8 -47 40 -96
38 -37 79 -59 153 -81 11 -4 12 -7 2 -17 -8 -8 -44 -12 -100 -12 -80 0 -92 3
-137 30 -90 56 -136 166 -100 241 8 16 19 80 25 142 25 263 83 365 255 446
244 116 288 136 293 136 14 0 -29 -38 -112 -99 -110 -82 -124 -98 -99 -108 25
-9 105 35 194 108 41 34 88 68 104 76 16 8 69 53 118 99 48 46 114 97 145 113
32 16 108 64 168 105 l110 76 120 -6 c66 -3 170 -12 230 -20z m139 -1563 c-6
-26 -3 -30 32 -41 26 -9 59 -10 108 -4 39 4 96 8 126 8 l55 1 3 -37 c4 -46
-22 -98 -48 -98 -32 0 -33 -18 -2 -84 46 -99 111 -129 97 -45 -14 84 34 26 79
-95 30 -78 41 -94 72 -107 14 -5 27 -22 33 -44 5 -21 25 -52 44 -70 25 -24 36
-46 41 -77 4 -24 15 -58 26 -76 11 -18 20 -36 20 -41 0 -5 -22 -11 -49 -15
-27 -3 -61 -16 -75 -27 -33 -26 -35 -59 -4 -59 34 0 11 -15 -62 -43 -36 -13
-83 -34 -105 -46 -42 -22 -129 -29 -140 -11 -3 6 3 23 14 39 22 30 19 41 -11
41 -24 0 -23 24 3 80 23 49 59 148 59 162 0 4 -7 8 -15 8 -19 0 -66 -65 -113
-155 -70 -134 -202 -234 -322 -243 -70 -5 -90 5 -225 107 -131 100 -243 212
-279 282 -36 68 -31 89 19 89 50 0 69 -12 100 -66 52 -89 82 -101 154 -64 43
21 57 45 40 66 -16 19 -36 17 -66 -6 -58 -45 -89 -14 -128 130 -33 119 -68
180 -119 204 -22 10 -73 20 -126 23 -74 5 -90 9 -90 22 0 37 22 147 31 156 6
6 39 3 92 -8 99 -21 153 -21 187 -2 39 22 43 19 36 -37 -12 -99 22 -94 94 13
49 71 87 93 195 109 84 13 122 28 168 66 40 33 58 31 51 -5z m990 -851 c14 -5
26 -16 26 -23 0 -7 -20 -39 -43 -69 -76 -97 -107 -192 -151 -460 -66 -398 -65
-440 29 -914 102 -512 106 -538 114 -705 l7 -145 37 -51 c45 -62 67 -112 67
-155 0 -27 11 -43 66 -95 65 -61 66 -64 49 -83 -20 -22 -83 -46 -93 -35 -4 4
-7 12 -7 18 -1 39 -164 -31 -252 -108 -43 -38 -44 -41 -28 -55 23 -19 183 -27
214 -11 32 17 27 -3 -14 -61 -50 -69 -264 -338 -343 -432 -77 -90 -268 -276
-285 -276 -6 0 -18 -7 -27 -15 -18 -16 -17 -16 -140 53 -65 37 -70 38 -70 12
0 -12 -9 -24 -22 -29 -22 -8 -21 -10 22 -48 25 -22 58 -52 75 -66 35 -29 33
-33 -59 -110 -58 -48 -61 -49 -112 -45 -37 3 -82 19 -148 52 -105 53 -145 56
-182 15 -19 -21 -18 -21 9 -45 20 -17 35 -22 52 -18 33 8 42 -14 10 -26 -29
-11 -176 -13 -212 -4 -13 4 -23 10 -23 15 0 5 27 30 60 56 33 25 58 48 56 51
-3 2 4 20 14 40 20 37 34 99 45 196 l7 58 91 -2 c51 -2 100 -2 110 -1 24 2 21
29 -9 68 -41 54 -56 100 -48 147 9 56 43 146 55 146 6 0 45 -22 88 -50 89 -57
121 -64 121 -25 0 30 -3 30 51 5 24 -11 54 -20 65 -20 33 0 37 26 8 49 -32 26
-219 117 -258 127 -16 4 -65 43 -115 92 l-86 85 65 -5 c52 -3 88 -15 177 -56
149 -70 220 -84 409 -80 134 3 155 5 173 22 19 17 20 21 7 35 -12 11 -55 16
-188 21 -155 5 -179 9 -233 32 -33 14 -80 28 -105 32 -25 4 -86 27 -137 53
-79 39 -105 47 -177 53 -46 5 -92 13 -103 18 -37 20 -165 165 -220 248 -74
115 -153 283 -201 434 -95 296 -107 446 -54 710 17 85 49 274 72 419 56 353
104 515 188 626 35 46 125 106 138 92 4 -3 -14 -48 -39 -99 -83 -167 -112
-301 -152 -701 -14 -136 -28 -266 -31 -288 l-7 -41 394 4 394 5 125 36 c69 20
166 50 215 66 l90 29 7 174 c13 343 100 756 203 957 28 55 62 89 101 101 39
11 39 11 68 0z m-3037 -1483 c-7 -47 16 -109 51 -140 11 -10 44 -24 74 -32 29
-7 80 -25 113 -39 33 -14 86 -31 117 -37 31 -6 64 -19 73 -29 20 -22 34 -118
35 -230 1 -160 47 -517 86 -665 64 -241 78 -286 114 -365 46 -100 55 -164 65
-435 6 -159 5 -178 -8 -165 -20 21 -46 105 -53 170 -10 110 -15 140 -24 140
-15 0 -80 -113 -80 -139 0 -13 7 -32 15 -40 12 -15 11 -22 -8 -59 l-21 -43 41
-37 c43 -38 58 -71 36 -79 -7 -3 -35 17 -63 43 -38 35 -63 73 -95 140 -52 108
-70 127 -61 63 8 -48 -1 -43 -36 20 -10 17 -25 34 -35 38 -35 12 -53 36 -53
70 0 57 38 226 71 315 41 113 43 122 26 149 -8 13 -24 57 -36 97 -21 70 -90
197 -211 387 -87 137 -144 282 -182 458 -29 139 -32 405 -5 455 11 20 25 32
39 32 19 0 20 -4 15 -43z m1096 -177 c12 -207 61 -384 172 -616 95 -200 139
-262 294 -414 101 -99 140 -144 147 -170 8 -29 24 -45 96 -92 100 -66 115 -86
98 -129 -8 -18 -10 -46 -6 -74 7 -41 5 -48 -22 -74 -21 -21 -42 -31 -78 -36
-95 -12 -121 -37 -133 -129 -4 -32 -16 -65 -27 -77 -27 -30 -25 -126 4 -205
29 -75 25 -84 -64 -187 l-68 -79 -316 4 c-346 4 -362 6 -389 63 -12 24 -16
108 -21 405 l-6 375 -42 100 c-71 175 -149 535 -177 823 -23 233 -34 334 -41
360 -9 31 55 92 167 161 102 63 185 90 304 100 50 5 93 9 96 10 3 0 9 -53 12
-119z m2898 -514 c89 -16 145 -40 161 -69 6 -12 8 -47 5 -83 -6 -75 -43 -160
-128 -291 -32 -50 -59 -96 -59 -101 0 -12 -312 -336 -440 -458 -104 -99 -187
-162 -595 -453 -148 -105 -284 -203 -301 -216 -41 -31 -70 -93 -83 -173 -16
-103 -106 -267 -230 -422 -60 -75 -232 -252 -238 -246 -8 8 26 63 71 113 26
28 53 69 62 90 18 43 51 83 70 83 14 0 25 25 18 43 -2 7 6 27 20 45 22 31 23
35 10 73 -8 22 -12 50 -8 63 12 48 -59 65 -119 27 -44 -27 -79 -66 -115 -131
-32 -58 -87 -118 -98 -107 -11 11 4 51 57 142 29 50 58 109 65 133 30 99 122
204 342 396 233 201 572 593 796 919 38 54 123 167 191 252 131 163 183 235
235 328 l32 57 101 0 c56 -1 136 -7 178 -14z m-301 -1043 c51 -33 90 -77 90
-100 0 -13 -9 -41 -20 -63 -24 -46 -26 -104 -6 -152 8 -19 11 -39 7 -46 -4 -6
-32 -16 -62 -22 -120 -23 -135 -35 -127 -110 5 -51 24 -57 123 -36 84 17 87
17 116 -2 45 -28 118 -122 125 -160 4 -18 4 -51 0 -72 -3 -23 -2 -40 3 -40 12
0 61 58 61 73 0 32 -23 83 -69 154 -28 42 -51 85 -51 95 0 22 38 44 52 30 5
-5 29 -63 53 -128 23 -66 63 -159 89 -209 28 -54 57 -130 72 -190 23 -90 25
-114 21 -230 -3 -71 -13 -161 -21 -199 -17 -77 -45 -156 -55 -156 -7 0 -106
360 -117 425 -3 22 -16 50 -27 63 -11 12 -15 22 -9 22 19 0 14 23 -24 106 -19
43 -42 102 -49 132 -8 30 -19 60 -25 67 -6 7 -61 39 -121 71 -61 31 -123 70
-138 84 -35 35 -66 134 -57 186 18 119 18 151 2 181 -17 35 -52 51 -69 34 -6
-6 -14 -50 -17 -99 -3 -48 -9 -93 -13 -99 -5 -7 -27 -13 -50 -13 l-42 0 40
-34 c22 -19 37 -37 33 -41 -4 -4 -26 9 -49 28 -47 41 -95 61 -105 45 -4 -5 42
-59 102 -119 60 -60 106 -109 102 -109 -4 0 -40 26 -80 58 -147 117 -188 141
-188 110 0 -16 87 -98 104 -98 15 0 89 -80 81 -88 -2 -2 -21 9 -42 25 -75 59
-111 67 -79 18 25 -38 2 -32 -78 20 -95 62 -118 61 -70 -2 14 -19 23 -37 19
-41 -4 -4 -43 13 -87 36 -44 24 -82 42 -84 39 -3 -2 7 -18 21 -35 14 -16 25
-33 25 -36 0 -12 -28 -6 -40 9 -7 8 -21 15 -31 15 -34 0 -20 -27 30 -60 27
-17 55 -38 61 -46 10 -12 8 -14 -14 -14 -15 0 -37 5 -49 11 -33 17 -157 112
-157 120 0 4 105 78 233 165 241 164 458 318 511 364 36 32 106 80 115 80 4 0
18 -7 31 -17z m-3980 -673 c348 -17 492 -40 625 -104 80 -38 126 -73 166 -130
36 -49 36 -62 2 -71 -15 -3 -50 -23 -77 -42 -122 -88 -297 -147 -520 -179
-153 -21 -610 -29 -811 -15 -392 28 -677 88 -791 165 -66 44 -93 108 -58 137
23 19 47 0 59 -50 8 -32 18 -47 40 -58 17 -9 37 -22 46 -29 13 -12 26 -11 86
10 38 13 88 27 110 31 25 4 57 20 80 39 53 46 91 64 181 86 247 61 553 73 702
29 58 -17 90 -31 90 -38 0 -4 -37 -13 -82 -20 -256 -38 -358 -65 -358 -96 0
-20 1 -19 89 13 l76 27 360 0 360 0 99 -33 c54 -17 105 -32 113 -32 27 0 2 20
-68 55 -76 39 -157 60 -264 70 -126 11 -236 36 -319 70 -137 57 -218 68 -459
63 -123 -2 -194 0 -171 5 91 19 99 22 99 45 1 31 18 45 67 53 65 10 299 10
528 -1z m-2028 -291 c46 -48 41 -71 -7 -35 -35 27 -51 33 -40 16 12 -20 -6
-47 -45 -69 -74 -42 -42 -56 104 -46 l101 6 60 -83 c85 -119 227 -295 414
-513 176 -206 231 -282 231 -315 0 -20 -5 -22 -52 -20 -82 4 -103 1 -124 -15
-17 -14 -16 -14 24 -9 33 5 42 4 42 -8 0 -10 -18 -19 -57 -27 -73 -14 -83 -14
-83 4 0 24 -37 18 -109 -19 -36 -19 -76 -37 -88 -41 -32 -9 -158 -93 -230
-153 -34 -29 -67 -52 -72 -52 -6 0 -18 16 -27 35 -9 19 -20 35 -23 35 -18 0
-19 -15 -5 -42 9 -17 13 -33 9 -36 -3 -3 -35 -9 -70 -13 -65 -6 -121 -32 -110
-49 4 -6 29 -7 59 -4 35 4 56 3 60 -5 9 -13 76 -15 76 -2 0 5 20 17 45 27 49
18 65 38 65 77 0 18 8 26 36 35 29 9 36 8 41 -4 10 -26 -19 -64 -91 -120 -81
-63 -86 -64 -269 -37 -113 17 -118 16 -135 -1 -16 -18 -15 -18 32 -11 l49 7
-7 -43 c-9 -55 -9 -56 -51 -63 -20 -4 -125 -51 -234 -105 -109 -54 -216 -101
-237 -104 -47 -8 -84 13 -84 47 0 26 -21 57 -91 132 -48 51 -89 121 -89 149 0
9 -18 35 -40 58 -43 44 -63 96 -54 134 8 31 -36 88 -81 107 -26 11 -51 41
-111 133 -108 165 -129 213 -128 293 0 51 6 76 27 117 15 29 27 58 27 65 0 7
16 27 36 43 22 19 38 43 43 64 3 19 12 36 18 38 7 3 9 -4 6 -16 -5 -18 10 -14
108 34 130 62 240 95 315 95 60 0 77 -14 72 -62 -3 -31 -6 -34 -67 -50 -36
-10 -72 -25 -80 -34 -15 -15 -9 -16 79 -11 60 3 119 13 158 26 l63 22 19 -23
c26 -33 37 -14 16 28 -13 28 -21 34 -34 29 -47 -20 -61 -18 -81 16 -12 19 -21
49 -21 67 0 88 271 250 533 317 51 13 98 24 106 25 8 0 31 -18 53 -41z m3352
-74 c125 -37 189 -67 284 -136 56 -42 100 -65 135 -73 29 -7 69 -24 90 -38 58
-41 158 -50 127 -13 -7 8 -28 19 -48 26 -20 6 -50 21 -66 32 -16 11 -45 26
-65 34 -34 13 -30 14 57 8 113 -6 187 -24 288 -70 94 -43 142 -57 150 -43 4 5
17 8 31 5 37 -7 41 21 7 48 -36 29 -27 39 33 39 42 1 47 -2 55 -27 22 -63 -28
-129 -135 -182 -139 -68 -297 -89 -603 -83 l-199 4 -87 42 c-75 37 -88 47 -98
76 -21 63 28 131 122 171 45 18 65 12 73 -25 3 -16 13 -34 20 -40 12 -10 17
-7 25 14 21 57 -12 88 -125 121 -76 21 -165 68 -201 106 l-28 29 35 0 c19 0
74 -11 123 -25z m-2825 -61 c12 -15 21 -41 21 -60 0 -23 10 -44 32 -69 26 -30
29 -38 17 -46 -8 -5 -17 -9 -21 -9 -20 0 -4 -31 33 -65 49 -44 138 -86 232
-109 86 -22 207 -33 207 -19 0 15 -36 28 -145 53 -55 12 -107 26 -115 31 -19
10 46 11 147 1 83 -9 83 -4 1 23 -32 11 -58 23 -58 27 0 4 21 8 48 9 l47 1
-61 17 c-118 35 -138 61 -46 61 31 0 149 -11 262 -25 167 -20 250 -25 451 -25
235 0 564 13 639 26 34 6 34 5 17 -14 -10 -11 -17 -28 -15 -39 2 -15 -7 -20
-52 -29 l-55 -11 125 -8 c140 -9 138 -15 -13 -41 -54 -9 -96 -18 -94 -20 7 -7
352 16 387 26 31 8 33 8 17 -4 -21 -16 -101 -35 -312 -71 -82 -15 -152 -29
-155 -32 -3 -3 63 -4 145 -1 143 5 212 -1 190 -14 -18 -11 -163 -38 -261 -48
-169 -18 -640 -29 -804 -20 -120 7 -182 15 -272 39 -121 31 -282 88 -353 124
-67 33 -154 96 -172 124 -16 25 -62 190 -63 226 0 25 26 21 49 -9z m116 -425
c19 -17 38 -42 41 -55 4 -14 19 -31 35 -40 17 -8 27 -19 24 -25 -12 -19 6 -46
45 -68 23 -13 37 -27 34 -35 -3 -7 1 -18 8 -23 21 -17 154 -55 180 -51 20 3
15 8 -32 36 l-55 33 65 -6 65 -7 -55 28 -55 28 65 6 c63 5 64 5 42 21 -20 14
-21 17 -7 23 25 9 638 7 824 -4 120 -7 168 -13 180 -24 9 -8 41 -18 71 -22 67
-8 103 -21 96 -33 -3 -5 -30 -15 -58 -21 -88 -21 -89 -29 -4 -30 44 0 77 -3
74 -6 -3 -3 -32 -12 -64 -21 -68 -17 -119 -41 -109 -51 4 -4 34 -9 68 -12 l62
-5 -70 -18 c-109 -29 -119 -36 -52 -36 64 -1 70 -15 10 -24 -53 -7 -95 -25
-88 -37 3 -5 15 -10 26 -10 10 0 19 -7 19 -15 0 -21 40 -28 134 -23 79 4 88 7
150 48 44 29 63 47 56 54 -17 17 -11 25 43 52 73 37 80 43 65 61 -10 12 -6 20
20 42 18 14 32 33 32 42 0 8 11 30 25 49 13 18 22 37 19 42 -4 5 3 16 15 24
12 9 37 40 56 70 31 49 65 71 65 43 0 -14 -88 -256 -105 -289 -43 -81 -204
-231 -305 -284 -165 -87 -336 -111 -729 -103 l-278 5 -136 65 c-175 84 -254
132 -271 166 -8 15 -56 72 -107 126 -67 72 -101 119 -125 170 -38 82 -67 175
-54 175 5 0 25 -14 45 -31z m-1995 11 c0 -5 -5 -10 -11 -10 -5 0 -7 5 -4 10 3
6 8 10 11 10 2 0 4 -4 4 -10z m6900 -101 c105 -14 264 -55 331 -85 31 -14 74
-43 95 -65 l37 -38 -48 -43 c-137 -122 -253 -158 -504 -158 -294 0 -598 56
-681 127 -74 62 -2 143 127 143 l58 0 -60 -29 c-55 -26 -111 -71 -88 -71 5 0
47 13 94 29 322 108 632 114 908 16 48 -17 101 -20 101 -6 0 27 -98 63 -255
93 -82 16 -153 21 -280 22 -171 1 -195 5 -195 31 0 49 146 62 360 34z m-1499
-225 c114 -23 295 -100 330 -140 48 -55 19 -134 -69 -189 -122 -76 -309 -115
-554 -115 -285 0 -482 52 -598 156 -53 48 -57 66 -26 119 45 75 117 110 124
59 2 -15 -12 -35 -50 -68 -43 -38 -49 -46 -31 -46 12 0 57 15 100 34 167 73
349 102 588 93 174 -7 270 -25 378 -73 80 -35 107 -41 107 -25 0 18 -65 59
-127 80 -84 28 -214 48 -433 66 -203 17 -233 21 -225 34 5 10 111 29 185 35
73 5 230 -5 301 -20z"/>
<path d="M8384 8129 c-4 -6 -17 -62 -29 -124 -16 -78 -35 -139 -64 -200 -23
-48 -41 -94 -40 -103 3 -34 -2 -42 -86 -133 -96 -104 -110 -133 -75 -161 29
-23 61 -23 110 2 45 23 73 60 64 84 -3 9 1 27 10 41 9 13 16 32 16 41 0 20 24
60 107 177 76 108 92 163 75 264 -11 68 -37 116 -65 121 -8 2 -18 -2 -23 -9z"/>
<path d="M3333 5465 c-17 -18 -56 -47 -87 -64 -70 -40 -73 -56 -8 -46 l47 7
-22 -24 c-27 -29 -28 -36 -7 -59 17 -19 11 -39 -12 -39 -8 0 -17 13 -21 30 -8
44 -32 53 -71 29 -69 -41 -66 -108 7 -130 34 -10 49 -9 112 11 104 31 145 55
173 98 13 21 36 46 50 55 51 34 28 91 -51 131 -72 36 -77 36 -110 1z"/>
</g>
</svg>
