<svg id="Capa_1" enable-background="new 0 0 512 512" height="512" viewBox="0 0 512 512" width="512" xmlns="http://www.w3.org/2000/svg"><g><path d="m256 90.513c-30.835 0-76.113 4.878-105 14.487 0 29.238 25.756 51.392 54.009 47.681 11.88-1.523 38.994-2.285 50.991-2.285s39.111.762 50.991 2.285c28.528 3.693 54.009-18.662 54.009-47.681-28.887-9.609-74.165-14.487-105-14.487z"/><path d="m346 300h-180c-41.353 0-75 34.647-75 76v15h60v-30h210v30h60v-15c0-41.353-33.647-76-75-76z"/><path d="m301 451h-90v-60h-30v121h150v-121h-30z"/><path d="m241 391h30v30h-30z"/><path d="m91 421h60v91h-60z"/><path d="m361 421h60v91h-60z"/><path d="m256 60.513c29.143 0 72.343 4.426 104.903 13.526-.529-40.968-33.81-74.039-74.903-74.039h-60c-41.093 0-74.374 33.071-74.903 74.039 32.56-9.101 75.76-13.526 104.903-13.526z"/><path d="m256 180.396c-37.117 0-48.254 2.695-57.188 2.695-17.518 0-34.023-6.143-47.692-16.89.66 57.422 47.302 103.799 104.88 103.799 57.568 0 104.202-46.364 104.875-103.773-13.22 10.393-29.647 16.849-47.703 16.849-9.107 0-20.284-2.68-57.172-2.68z"/></g></svg>