<svg id="Capa_1" enable-background="new 0 0 512 512" height="512" viewBox="0 0 512 512" width="512" xmlns="http://www.w3.org/2000/svg"><g><path d="m391 390h-135-135l-30 30v92h60l30-30h75 75l30 30h60v-92z" fill="#ffe1ba"/><path d="m361 512h60v-92l-30-30h-135v92h75z" fill="#ffbfab"/><path d="m346 270h-90-90c-41.422 0-75 33.578-75 75v75h165 165v-75c0-41.422-33.578-75-75-75z" fill="#ff6c6c"/><path d="m421 345c0-41.422-33.578-75-75-75h-90v150h165z" fill="#e63950"/><g><path d="m301 330-30 30h-15-15l-30-30h-60v182h105 105v-182z" fill="#ffb64c"/><path d="m361 330h-60l-30 30h-15v152h105z" fill="#ff9100"/><path d="m256 330h-45v90h45 45v-90z" fill="#ffd396"/><path d="m256 330h45v90h-45z" fill="#ffb64c"/></g><path d="m256 117.715-105-12.715v60c0 47.49 31.732 87.151 75 100.124v34.876h30 30v-34.876c43.268-12.973 75-52.634 75-100.124v-60z" fill="#ffe1ba"/><path d="m286 265.124c43.268-12.973 75-52.634 75-100.124v-60l-105 12.715v182.285h30z" fill="#ffbfab"/><path d="m286 0h-30-30c-41.422 0-75 33.578-75 75v30h105 105v-30c0-41.422-33.578-75-75-75z" fill="#ff6c6c"/><path d="m361 75c0-41.422-33.578-75-75-75h-30v105h105z" fill="#e63950"/><path d="m256 90c-30.835 0-76.113 5.391-105 15 0 29.238 25.756 48.712 54.009 45 11.88-1.523 38.994-2.285 50.991-2.285s39.111.762 50.991 2.285c28.528 3.693 54.009-15.981 54.009-45-28.887-9.609-74.165-15-105-15z" fill="#fff5f5"/><path d="m361 105c-28.887-9.609-74.165-15-105-15v57.715c11.997 0 39.111.762 50.991 2.285 28.528 3.693 54.009-15.981 54.009-45z" fill="#efe2dd"/></g></svg>